<svg width="277" height="44" viewBox="0 0 277 44" fill="none" xmlns="http://www.w3.org/2000/svg">
<g clip-path="url(#clip0_335_67524)">
<path d="M22 0C32.3709 0 37.5565 -0.000145719 40.7783 3.22168C44.0001 6.44351 44 11.6291 44 22C44 32.3709 44.0001 37.5565 40.7783 40.7783C37.5565 44.0001 32.3709 44 22 44C11.6291 44 6.44351 44.0001 3.22168 40.7783C-0.000145719 37.5565 0 32.3709 0 22C0 11.6291 -0.000145719 6.44351 3.22168 3.22168C6.44351 -0.000145719 11.6291 0 22 0ZM20.1045 10.1191L20.0986 10.125C19.7708 10.1299 19.4422 10.1428 19.1143 10.1719C18.8901 10.1918 18.5953 10.2321 18.3926 10.2607C18.2853 10.2759 18.1857 10.2891 18.1143 10.2998C18.0797 10.305 18.0504 10.3094 18.0303 10.3125H17.8779L17.8428 10.3477C17.6427 10.3864 17.4121 10.4369 17.2451 10.4756C17.1381 10.5004 17.0402 10.5243 16.9746 10.54C16.9611 10.5433 16.9477 10.5459 16.9346 10.5488C16.9229 10.5515 16.9057 10.5552 16.8916 10.5586H16.8906C16.8816 10.5608 16.8734 10.5637 16.8672 10.5654C16.8657 10.5658 16.8638 10.566 16.8623 10.5664L16.8438 10.5703L16.832 10.5742L16.8164 10.5781C16.4439 10.6781 16.0748 10.7948 15.7129 10.9268C15.5343 10.9917 15.3564 11.0609 15.1797 11.1338L14.6533 11.3652C14.3092 11.5254 13.9713 11.7008 13.6426 11.8906C13.3157 12.0788 12.9968 12.2815 12.6885 12.4971C12.5101 12.6216 12.284 12.796 12.1299 12.916C12.0477 12.9801 11.9727 13.0394 11.9189 13.082C11.8946 13.1013 11.8638 13.1262 11.8555 13.1328C11.8532 13.1346 11.8504 13.1365 11.8477 13.1387C11.8454 13.1404 11.8414 13.1437 11.8379 13.1465L11.8359 13.1475C11.8332 13.1497 11.8307 13.152 11.8291 13.1533L11.8281 13.1543L11.8125 13.167L11.8086 13.1689L11.8008 13.1758L11.7949 13.1816C11.5099 13.4203 11.2343 13.6715 10.9707 13.9346C10.8413 14.0638 10.7136 14.1973 10.5889 14.333L10.582 14.3408L10.2295 14.7412L10.2227 14.749C9.98884 15.0269 9.76778 15.315 9.55957 15.6104C9.55779 15.6127 9.55472 15.6159 9.55176 15.6201L9.24902 16.0723L9.24414 16.0801L8.97168 16.5273L8.9668 16.5352C8.78478 16.8485 8.61741 17.1698 8.46484 17.4951L8.24609 17.9873L8.24219 17.9971L8.05469 18.4795L8.48145 18.6465L8.05371 18.4795L8.05078 18.4893C7.92878 18.8226 7.82102 19.162 7.72852 19.5049C7.63683 19.8446 7.55971 20.1885 7.49805 20.5342C7.43646 20.8788 7.38936 21.2301 7.3584 21.5771C7.32765 21.9225 7.31271 22.2701 7.3125 22.6172C7.31201 22.9611 7.32624 23.3054 7.35547 23.6465C7.35746 23.6697 7.36216 23.6952 7.36523 23.7217L7.36328 23.7227H7.36426L7.36328 23.7236C7.36519 23.7407 7.36769 23.766 7.37109 23.7959C7.37796 23.8562 7.38794 23.942 7.39941 24.0361C7.42049 24.2089 7.45372 24.4678 7.48828 24.665L7.49805 24.6689L7.49121 24.6709C7.50773 24.7576 7.56651 25.0266 7.59668 25.1631C7.60781 25.2135 7.61941 25.2647 7.62988 25.3125C7.64029 25.36 7.64969 25.4058 7.6582 25.4443C7.66233 25.463 7.66651 25.4807 7.66992 25.4961C7.6733 25.5113 7.67726 25.5252 7.67969 25.5361L7.67871 25.5371C7.67894 25.5381 7.67999 25.5399 7.68066 25.543C7.6809 25.5441 7.68118 25.5474 7.68164 25.5498C7.68217 25.5524 7.68345 25.5575 7.68457 25.5625L7.68555 25.5684L7.69141 25.5928L7.69531 25.6025L7.70703 25.6504L7.70605 25.6514L7.70898 25.6621C7.76003 25.8521 7.83776 26.095 7.89062 26.2578C7.93992 26.4096 7.98433 26.5421 7.99316 26.5684V26.5693C8.00009 26.59 8.01021 26.6188 8.01172 26.623C8.1256 26.9355 8.25389 27.2434 8.39453 27.5449C8.53448 27.8449 8.68936 28.1417 8.85352 28.4258C8.93546 28.5675 9.02109 28.7084 9.10938 28.8467L9.11426 28.8545L9.37695 29.2471L9.38281 29.2549C9.56999 29.5222 9.77034 29.7827 9.97754 30.0293C10.1856 30.2767 10.406 30.5161 10.6328 30.7422C10.7462 30.8552 10.863 30.9662 10.9814 31.0742L11.3438 31.3916C11.5669 31.5787 11.7992 31.7545 12.0342 31.9209L12.0391 31.9258L12.0547 31.9365L12.0557 31.9385V31.9375L12.0693 31.9473C12.0743 31.9509 12.079 31.9548 12.082 31.957L12.085 31.958C12.0871 31.9596 12.0895 31.9621 12.0918 31.9639L12.1133 31.9785C12.1167 31.9809 12.121 31.9849 12.126 31.9883C12.1359 31.9949 12.1507 32.004 12.1611 32.0107L12.1621 32.0117C12.164 32.0129 12.1662 32.0145 12.168 32.0156L12.1689 32.0146C12.1709 32.016 12.1729 32.0181 12.1748 32.0195C12.1829 32.0244 12.1898 32.0283 12.1934 32.0303C12.1916 32.0293 12.188 32.0274 12.1846 32.0254C12.4126 32.1812 12.6487 32.3316 12.8926 32.4717C13.1646 32.6285 13.4429 32.7726 13.7246 32.9033C13.7274 32.9046 13.7363 32.9086 13.7461 32.9131L13.748 32.9141L13.7695 32.9238C13.7709 32.9244 13.773 32.9244 13.7744 32.9248C13.7777 32.9262 13.7809 32.9278 13.7832 32.9287C13.7809 32.9278 13.7782 32.927 13.7754 32.9258L13.7764 32.9268C13.779 32.9279 13.7834 32.9296 13.7881 32.9316L13.79 32.9326H13.791L13.8516 32.96C13.8997 32.9807 13.9706 33.0109 14.0488 33.0439C14.1918 33.1043 14.4101 33.1935 14.582 33.2559V33.2568C14.8721 33.3619 15.1677 33.4537 15.459 33.5312C15.752 33.6093 16.048 33.6744 16.3447 33.7266H16.3438C16.345 33.7268 16.3479 33.7271 16.3506 33.7275C16.3535 33.7281 16.3585 33.7296 16.3633 33.7305H16.3652C16.3871 33.734 16.924 33.8162 17.2471 33.8438C17.4771 33.8635 17.7098 33.8731 17.9424 33.877L17.9473 33.8818H18.1377C18.4324 33.8814 18.7304 33.8677 19.0234 33.8418C19.2344 33.8231 19.4447 33.7947 19.6533 33.7627L19.6592 33.7686L19.8936 33.7266C20.0654 33.6962 20.2824 33.6473 20.4209 33.6152C20.4412 33.6105 20.4613 33.6051 20.4805 33.6006L20.4863 33.6064L20.6943 33.5508L20.7061 33.5479L20.7051 33.5469H20.71C20.7151 33.5456 20.7199 33.5441 20.7236 33.543H20.7256C20.7338 33.5408 20.741 33.5387 20.7461 33.5371L20.748 33.5361C21.023 33.4622 21.2972 33.3762 21.5635 33.2793V33.2773C21.8302 33.1804 22.0944 33.0724 22.3506 32.9531C22.6084 32.8334 22.8599 32.702 23.1035 32.5615L23.1123 32.5566L23.4541 32.3496L23.4619 32.3447C23.5786 32.2705 23.6954 32.1929 23.8105 32.1123C24.0372 31.9538 24.2559 31.7857 24.4648 31.6113L24.5107 31.5723C24.5227 31.5618 24.6116 31.4827 24.7012 31.4023C24.7991 31.3144 24.9529 31.1752 25.0693 31.0596L25.0742 31.0547C25.0968 31.0321 25.4363 30.6798 25.624 30.457L25.6299 30.4492L25.8711 30.1504L25.877 30.1426C25.9587 30.0364 26.0388 29.9276 26.1162 29.8174C26.2681 29.6012 26.4104 29.3784 26.542 29.1523L26.7588 28.7803L26.7451 28.7715C26.8062 28.6563 26.8682 28.5406 26.9102 28.4512L27.0996 28.0459L27.085 28.0381C27.1311 27.9275 27.1781 27.8157 27.2109 27.7256L27.3115 27.4512L27.3057 27.4453C27.3551 27.2961 27.4031 27.1457 27.4443 26.9932V26.9922C27.511 26.7456 27.566 26.4964 27.6104 26.248C27.6549 25.9986 27.6887 25.747 27.7109 25.499C27.7333 25.2499 27.745 24.9976 27.7451 24.7461C27.7452 24.6244 27.7425 24.5018 27.7373 24.3789L27.7139 24.0088C27.6927 23.7638 27.6596 23.5219 27.6182 23.2852C27.5974 23.1669 27.5739 23.0476 27.5479 22.9297L27.5459 22.9199L27.4648 22.5889L27.4629 22.5791L27.3613 22.2324C27.3253 22.118 27.287 22.0047 27.2471 21.8945C27.1962 21.7547 27.1253 21.5859 27.083 21.4863C27.0646 21.4431 27.047 21.4016 27.0332 21.3701V21.3682L26.9941 21.2793C26.9887 21.2669 26.9835 21.2552 26.9805 21.249C26.9769 21.2416 26.9756 21.2403 26.9746 21.2383C26.9129 21.1063 26.8298 20.9482 26.7793 20.8535C26.7505 20.7995 26.7235 20.7498 26.7061 20.7178C26.703 20.7121 26.6997 20.7056 26.6963 20.6992L26.6875 20.6826L26.6865 20.6816C26.6861 20.6808 26.6852 20.6791 26.6846 20.6777V20.6758L26.6807 20.6699C26.68 20.6688 26.6787 20.6668 26.6777 20.665L26.4189 20.8057L26.6777 20.6641L26.6484 20.6074L26.6406 20.5996L26.4785 20.333L26.4736 20.3252L26.2783 20.0352H26.2773C26.1469 19.8492 26.0077 19.6669 25.8604 19.4922C25.7892 19.4078 25.715 19.3232 25.6387 19.2402H25.6396L25.6318 19.2324L25.4111 19.0029L25.4043 18.9961L25.167 18.7686L25.1592 18.7627L24.917 18.5508L24.9102 18.5449L24.667 18.3506L24.6592 18.3438L24.6514 18.3379L24.4023 18.1562L24.3945 18.1504L24.1221 17.9697C24.0308 17.9119 23.9383 17.8561 23.8457 17.8027C23.6776 17.706 23.5052 17.6158 23.3281 17.5322H23.3291C22.1763 16.9533 20.7808 16.7471 19.7822 16.7471H19.3242V20.8721H19.7822C20.3465 20.8721 21.0595 21.0094 21.4766 21.2188C21.501 21.231 21.5263 21.2427 21.54 21.249C21.6221 21.2868 21.7053 21.3293 21.7881 21.377L22.0312 21.5322L22.1533 21.6201V21.6211C22.1942 21.6524 22.2339 21.6833 22.2705 21.7139C22.3427 21.7743 22.4132 21.8397 22.4766 21.9023L22.4951 21.9209C22.5679 21.9932 22.6399 22.0715 22.708 22.1523C22.7756 22.2325 22.8408 22.3174 22.9023 22.4053L22.9043 22.4092H22.9053L23.0713 22.667L23.084 22.6904C23.0982 22.7166 23.1172 22.7537 23.1387 22.7939C23.1849 22.8808 23.2209 22.9513 23.2354 22.9814C23.2361 22.9831 23.2369 22.9854 23.2373 22.9863H23.2383C23.2503 23.0139 23.2668 23.0541 23.2861 23.0996L23.3701 23.3037L23.4297 23.4814C23.4469 23.5364 23.4628 23.5919 23.4766 23.6436C23.5079 23.7608 23.5342 23.8799 23.5547 23.9971C23.5764 24.1208 23.5931 24.2449 23.6035 24.3652C23.6142 24.489 23.6202 24.6159 23.6201 24.7441C23.6201 24.803 23.618 24.864 23.6152 24.9268L23.6016 25.1309C23.5898 25.2627 23.5725 25.3964 23.5498 25.5234C23.538 25.5898 23.5244 25.6571 23.5098 25.7227L23.4619 25.916C23.4261 26.0485 23.384 26.1801 23.3369 26.3086L23.3359 26.3115C23.3222 26.3489 23.2841 26.4434 23.2354 26.5576C23.2134 26.609 23.193 26.6557 23.1787 26.6885C23.1738 26.6998 23.1729 26.7021 23.1699 26.709L23.1289 26.791C23.1052 26.837 23.0778 26.888 23.0498 26.9404C23.0225 26.9916 22.9986 27.0368 22.9814 27.0684L22.9727 27.083C22.9715 27.085 22.9696 27.0877 22.9678 27.0908C22.8958 27.2136 22.8199 27.3319 22.7402 27.4453C22.6978 27.5058 22.6539 27.5659 22.6084 27.625L22.4678 27.7998C22.4369 27.8363 22.363 27.919 22.2744 28.0137C22.2348 28.0561 22.1977 28.0948 22.1699 28.124L22.1523 28.1416C22.1109 28.1818 22.0329 28.2544 21.9453 28.333C21.8843 28.3877 21.8415 28.4253 21.8086 28.4541C21.689 28.5533 21.5684 28.6458 21.4473 28.7305C21.3849 28.7741 21.3214 28.8177 21.2578 28.8584L21.0361 28.9922C20.9008 29.07 20.7628 29.1412 20.624 29.2061L20.6104 29.2129C20.4601 29.2829 20.305 29.3469 20.1523 29.4023C20.0044 29.4562 19.8511 29.505 19.6973 29.5469C19.6736 29.5526 19.6938 29.5477 19.6523 29.5576C19.6086 29.5681 19.5521 29.5823 19.4902 29.5967C19.3499 29.6292 19.2287 29.6547 19.1758 29.6641L19.1396 29.6699C18.9811 29.697 18.8199 29.7192 18.6592 29.7334C18.4865 29.7486 18.3079 29.7566 18.1318 29.7568C17.9561 29.7571 17.7772 29.7496 17.5996 29.7344L17.5898 29.7334C17.5269 29.7277 17.3995 29.7115 17.2549 29.6914C17.1883 29.6822 17.1295 29.6731 17.0811 29.666C17.0752 29.6652 17.0688 29.6643 17.0615 29.6631C17.0584 29.6626 17.0527 29.6618 17.0488 29.6611C17.0472 29.6609 17.0449 29.6605 17.043 29.6602H17.0439C16.8655 29.6284 16.6905 29.5902 16.5205 29.5449C16.3403 29.4969 16.1596 29.4403 15.9873 29.3779C15.9265 29.3559 15.7973 29.3049 15.6533 29.2441C15.5882 29.2167 15.5286 29.1905 15.4854 29.1719C15.4814 29.1702 15.4762 29.168 15.4697 29.165L15.4482 29.1543C15.3635 29.1148 15.2792 29.0746 15.1973 29.0322L14.9521 28.8984L14.6992 28.7461H14.7002C14.619 28.6946 14.5373 28.6399 14.457 28.584H14.4561C14.3755 28.5278 14.2961 28.4693 14.2188 28.4102L13.9912 28.2285L13.9844 28.2227L13.9814 28.2197L13.9775 28.2168L13.7549 28.0215L13.5459 27.8213L13.3281 27.5947L13.1338 27.374C13.0063 27.2222 12.8839 27.062 12.7695 26.8994L12.7656 26.8936L12.5811 26.6182C12.5261 26.5319 12.4731 26.4456 12.4238 26.3604H12.4229C12.3188 26.1801 12.2214 25.9906 12.1328 25.8008C12.0894 25.7078 12.0473 25.6135 12.0078 25.5186L11.8955 25.2295C11.8799 25.1832 11.8497 25.0928 11.8145 24.9844C11.7682 24.8419 11.7259 24.7074 11.7021 24.624C11.7008 24.6176 11.6991 24.6099 11.6973 24.6016C11.6943 24.5877 11.6903 24.571 11.6865 24.5537C11.6779 24.5148 11.6678 24.4692 11.6572 24.4219C11.6465 24.3742 11.6351 24.3235 11.624 24.2734C11.595 24.142 11.5864 24.1003 11.5625 23.9922C11.5588 23.9753 11.5547 23.9588 11.5518 23.9463C11.5502 23.9398 11.5489 23.9342 11.5479 23.9297C11.5338 23.8438 11.5145 23.6958 11.4951 23.5371C11.4852 23.4561 11.4757 23.3814 11.4697 23.3291C11.4665 23.3008 11.4645 23.2817 11.4629 23.2676L11.4609 23.2539C11.4442 23.045 11.4372 22.8338 11.4375 22.623V22.6211L11.4453 22.2822C11.4502 22.1725 11.4572 22.0625 11.4668 21.9531L11.5059 21.6016C11.5211 21.4878 11.5385 21.3722 11.5586 21.2598V21.2588C11.5993 21.0306 11.6504 20.8022 11.7109 20.5781C11.7692 20.3623 11.8367 20.1494 11.9121 19.9404L11.9248 19.9053C12.005 19.6859 12.0941 19.4703 12.1924 19.2598L12.1992 19.2461C12.3004 19.0303 12.4106 18.8196 12.5283 18.6162L12.7246 18.2939C12.7904 18.1911 12.8584 18.0899 12.9277 17.9912C12.9327 17.9841 12.9366 17.978 12.9395 17.9736L12.9463 17.9639C13.0128 17.8702 13.081 17.7775 13.1514 17.6865L13.3789 17.4053L13.3799 17.4043C13.5388 17.2155 13.7072 17.0309 13.8848 16.8535L14.166 16.5869C14.2533 16.5074 14.3425 16.4279 14.4346 16.3506C14.4408 16.3455 14.448 16.341 14.4531 16.3369C14.4619 16.3298 14.4709 16.322 14.4805 16.3145C14.5268 16.2777 14.5926 16.2264 14.665 16.1699C14.8176 16.051 14.9632 15.9406 15.0439 15.8838L15.0518 15.8789C15.2626 15.7315 15.4798 15.5933 15.7012 15.4658L15.7002 15.4648L15.7041 15.4639C15.9141 15.3426 16.1297 15.2295 16.3486 15.126L16.3975 15.1045C16.6338 14.9942 16.8773 14.8928 17.125 14.8027H17.126C17.2493 14.7578 17.3734 14.7144 17.498 14.6748L17.875 14.5645C17.8908 14.5606 17.9125 14.5556 17.9365 14.5498C17.9959 14.5356 18.0785 14.5167 18.1758 14.4941C18.3725 14.4486 18.5582 14.4066 18.6621 14.3877C18.6652 14.3873 18.6691 14.3873 18.6738 14.3867C18.6865 14.3851 18.7048 14.3828 18.7246 14.3799C18.7907 14.37 18.8745 14.3571 18.9688 14.3438C19.1737 14.3148 19.3728 14.2897 19.4785 14.2803C19.7505 14.2561 20.0254 14.2444 20.2988 14.2441C20.4068 14.244 20.6111 14.251 20.8223 14.2617C20.9193 14.2667 21.0078 14.2725 21.0732 14.2764C21.0915 14.2774 21.1087 14.2778 21.1211 14.2783C21.1304 14.2787 21.1368 14.2782 21.1406 14.2783C21.4149 14.3024 21.6888 14.3396 21.959 14.3867C22.2351 14.4349 22.512 14.4957 22.7852 14.5684C22.8932 14.5971 23.0929 14.6591 23.2988 14.7256C23.3941 14.7563 23.4814 14.7849 23.5439 14.8057C23.6057 14.8262 23.5722 14.8144 23.6045 14.8252C23.7346 14.8724 23.864 14.923 23.9922 14.9756L24.3789 15.1436L24.6846 15.2969V15.2959C24.8659 15.388 25.0439 15.4829 25.1484 15.542L25.9307 16.0381C26.1604 16.1996 26.3832 16.3701 26.5977 16.5488C26.627 16.5746 26.6226 16.5699 26.6562 16.5996L26.8564 16.7783L27.2588 17.1523H27.2598C27.2721 17.1652 27.2897 17.1831 27.3115 17.2061C27.3607 17.2578 27.4268 17.3261 27.498 17.4023C27.6518 17.5668 27.8001 17.7317 27.877 17.8232V17.8242H27.8779C28.0732 18.0564 28.2583 18.2961 28.4307 18.542L28.4414 18.5576C28.6128 18.8027 28.7745 19.0566 28.9248 19.3164C29.0693 19.5663 29.2029 19.8226 29.3262 20.083L29.3516 20.1367C29.4825 20.4168 29.6018 20.7043 29.708 20.9961V20.9971L29.7139 21.0098L29.875 21.415C30.0331 21.8118 30.2181 22.3518 30.251 23.1709V27.0186C30.2512 28.6041 30.8816 30.1255 32.0029 31.2471C33.1244 32.3684 34.6458 32.9987 36.2314 32.999H36.6924V28.874H36.2324C35.7405 28.8739 35.2678 28.6778 34.9199 28.3301C34.5723 27.9822 34.3761 27.5097 34.376 27.0176V23.8438H34.3848L34.3838 23.3838L34.376 23.0664V12.3447H30.251V14.3105C30.2462 14.3056 30.2415 14.3012 30.2383 14.2979L30.2197 14.2783L30.2178 14.2754L30.2061 14.2646L30.1826 14.2402L30.1738 14.2324L29.8994 13.9707L29.8945 13.9668L29.6123 13.708C29.5248 13.6294 29.4446 13.558 29.3867 13.5068C29.3707 13.4927 29.3556 13.4799 29.3438 13.4697L29.3174 13.4473L29.3145 13.4443C29.3133 13.4434 29.3103 13.441 29.3086 13.4395L29.3018 13.4326L29.2891 13.4219C29.2866 13.4198 29.2843 13.4179 29.2832 13.417L29.2822 13.416L29.2627 13.3984L29.2549 13.3926L29.248 13.3867L28.7773 13.0107L28.7695 13.0049C28.6058 12.8797 28.4388 12.757 28.2695 12.6387L28.2588 12.6318L28.1982 12.5918L28.1924 12.5879L27.2988 12.0215L27.2217 11.9746C27.0181 11.8577 26.7411 11.7152 26.5479 11.6172C26.4469 11.566 26.3526 11.5174 26.2842 11.4834C26.2643 11.4735 26.2454 11.4647 26.2314 11.458C26.2162 11.4507 26.2088 11.4471 26.2031 11.4443C26.202 11.4437 26.1985 11.4416 26.1963 11.4404C26.1933 11.4389 26.1872 11.4358 26.1807 11.4326H26.1797L26.1572 11.4219C26.1466 11.4168 26.136 11.4119 26.1279 11.4082C25.7807 11.2475 25.4255 11.1011 25.0654 10.9688L25.002 10.9053H24.8857C24.872 10.9006 24.8565 10.8952 24.8428 10.8906C24.7722 10.8672 24.6738 10.8348 24.5654 10.7998C24.3625 10.7343 24.069 10.6417 23.8447 10.582C23.4561 10.4786 23.0617 10.3922 22.666 10.3232C22.2746 10.255 21.8795 10.2032 21.4834 10.1689L21.4775 10.168L21.4424 10.166L21.4248 10.1641H21.4141C21.4109 10.1638 21.407 10.1633 21.4033 10.1631C21.3887 10.1622 21.3508 10.1602 21.3164 10.1582C21.2435 10.1539 21.1428 10.1482 21.0322 10.1426C20.824 10.132 20.5222 10.1188 20.2939 10.1191H20.1045ZM20.7451 33.5352L20.7441 33.5361L20.7432 33.5352C20.7457 33.5343 20.7483 33.5338 20.75 33.5332C20.7486 33.5337 20.7469 33.5346 20.7451 33.5352ZM17.2871 33.3877C17.422 33.3993 17.5579 33.4073 17.6943 33.4131C17.5577 33.4075 17.4212 33.3993 17.2861 33.3877C17.2488 33.3845 17.2085 33.3776 17.166 33.373C17.2089 33.3777 17.2495 33.3845 17.2871 33.3877ZM16.4248 33.2754C16.4294 33.2762 16.4349 33.2776 16.4395 33.2783C16.4458 33.2793 16.4871 33.2847 16.5498 33.2939C16.485 33.2844 16.443 33.279 16.4385 33.2783C16.434 33.2776 16.4283 33.2762 16.4238 33.2754H16.4248ZM13.958 32.5059C13.9618 32.5075 13.9671 32.5098 13.9736 32.5127C13.967 32.5098 13.9608 32.5075 13.957 32.5059L13.9531 32.5039C13.9542 32.5044 13.9562 32.5051 13.958 32.5059ZM12.4102 31.626L12.4111 31.627L12.4092 31.626C12.4063 31.6241 12.4028 31.6213 12.3984 31.6182C12.4031 31.6213 12.4073 31.6241 12.4102 31.626ZM12.3438 31.5801C12.3466 31.5821 12.3497 31.5848 12.3525 31.5869C12.348 31.5837 12.3427 31.5797 12.3379 31.5762L12.3369 31.5752C12.339 31.5767 12.3417 31.5787 12.3438 31.5801ZM18.7002 30.1904C18.5135 30.2069 18.3218 30.2146 18.1328 30.2148L18.1318 30.2139C18.2263 30.2137 18.3222 30.2122 18.417 30.208C18.512 30.2038 18.6067 30.1977 18.7002 30.1895V30.1904ZM21.7109 29.1064C21.6406 29.1557 21.5679 29.2047 21.4951 29.251L21.2734 29.3848H21.2725L21.4941 29.251C21.5668 29.2048 21.6397 29.1556 21.71 29.1064H21.7109ZM8.13281 25.4639C8.1334 25.4664 8.13445 25.4693 8.13477 25.4707L8.13574 25.4736L8.15234 25.543C8.20008 25.7207 8.27429 25.9544 8.32715 26.1172C8.37911 26.2772 8.42409 26.4131 8.42773 26.4238C8.43238 26.4377 8.43835 26.4521 8.44336 26.4658C8.55276 26.766 8.67544 27.062 8.81055 27.3516C8.94477 27.6393 9.09333 27.9235 9.25098 28.1963C9.32979 28.3326 9.41145 28.468 9.49609 28.6006L9.75781 28.9922C9.84746 29.1202 9.94094 29.2463 10.0361 29.3701V29.3711C9.94077 29.2471 9.84761 29.1204 9.75781 28.9922L9.49512 28.5996C9.41064 28.4673 9.32867 28.3323 9.25 28.1963C9.09244 27.9236 8.94373 27.6391 8.80957 27.3516C8.74212 27.207 8.67833 27.0606 8.61719 26.9131C8.55593 26.7653 8.49713 26.616 8.44238 26.4658C8.4374 26.4522 8.43234 26.4376 8.42773 26.4238C8.42409 26.4131 8.37818 26.2763 8.32617 26.1162C8.27336 25.9536 8.2 25.7204 8.15234 25.543L8.13477 25.4727L8.13379 25.4707C8.1334 25.4692 8.13238 25.4662 8.13184 25.4639C8.13058 25.458 8.12924 25.4489 8.12695 25.4385C8.12931 25.4492 8.13152 25.458 8.13281 25.4639ZM14.2803 29.0234C14.2745 29.0188 14.2676 29.0143 14.2617 29.0098C14.2465 28.9979 14.2322 28.9866 14.2197 28.9775L14.2188 28.9766C14.2362 28.9892 14.2575 29.0052 14.2803 29.0234ZM22.4727 28.4707C22.4259 28.5161 22.3429 28.5932 22.252 28.6748V28.6738C22.3428 28.5922 22.4249 28.5151 22.4717 28.4697L22.4727 28.4707ZM22.4658 28.4795L22.4609 28.4834L22.4648 28.4795C22.4652 28.4791 22.4659 28.4777 22.4668 28.4766C22.4661 28.4775 22.4662 28.479 22.4658 28.4795ZM12.2002 26.873L12.3848 27.1484V27.1494L12.2002 26.873C12.1409 26.7801 12.0824 26.6861 12.0273 26.5908V26.5898C12.0825 26.6852 12.1408 26.78 12.2002 26.873ZM23.6582 26.7373C23.6359 26.7897 23.6146 26.8377 23.5996 26.8721C23.5965 26.8793 23.5934 26.8867 23.5908 26.8926C23.5818 26.9117 23.5639 26.949 23.5371 27.001H23.5361C23.563 26.9488 23.5808 26.9118 23.5898 26.8926L23.5996 26.8721L23.6572 26.7373L23.7666 26.4688C23.7487 26.5178 23.7076 26.6213 23.6582 26.7373ZM24.0732 24.958L24.0586 25.1719C24.0457 25.3158 24.0272 25.4623 24.002 25.6035C23.9889 25.6767 23.9741 25.7503 23.958 25.8223L23.9053 26.0361H23.9043L23.957 25.8223C23.9731 25.7503 23.9879 25.6767 24.001 25.6035C24.0263 25.4621 24.0457 25.315 24.0586 25.1709L24.0723 24.957L24.0732 24.958ZM23.2812 22.1455C23.3461 22.2376 23.4079 22.3349 23.4668 22.4355L23.4854 22.4678H23.4844L23.4668 22.4355C23.4079 22.3349 23.3451 22.2376 23.2803 22.1455L23.2773 22.1416L23.2812 22.1455ZM7.9502 20.6152C7.89093 20.9469 7.84518 21.2846 7.81543 21.6182V21.6172C7.83031 21.4504 7.84865 21.2827 7.87109 21.1152L7.94922 20.6152L8.0498 20.1172C8.01298 20.2824 7.97991 20.4486 7.9502 20.6152ZM23.123 17.9414C23.2923 18.021 23.4569 18.107 23.6172 18.1992C23.7043 18.2494 23.7913 18.3021 23.877 18.3564L23.6172 18.2002C23.4568 18.1078 23.2925 18.0221 23.123 17.9424V17.9414ZM11.2949 14.2598C11.1699 14.3846 11.0467 14.5131 10.9268 14.6436L10.5742 15.0439C10.3475 15.3134 10.1319 15.5937 9.92969 15.8809C9.92902 15.8817 9.92837 15.8829 9.92773 15.8838C9.8274 16.0266 9.72969 16.1724 9.63574 16.3193L9.36328 16.7656L9.63477 16.3193C9.72868 16.1725 9.82646 16.0266 9.92676 15.8838C9.92751 15.8827 9.9289 15.881 9.92969 15.8799C10.1318 15.5928 10.3466 15.3133 10.5732 15.0439L10.9258 14.6436C11.0459 14.5129 11.1698 14.3838 11.2949 14.2588V14.2598ZM24.5713 14.7275L24.8896 14.8867C25.0782 14.9824 25.2687 15.0832 25.3818 15.1475C25.2686 15.0832 25.077 14.9823 24.8887 14.8867L24.5703 14.7275C24.4368 14.666 24.3019 14.6076 24.166 14.5518C24.302 14.6076 24.4376 14.666 24.5713 14.7275ZM22.9033 14.126C22.9476 14.1378 23.0029 14.1567 23.0664 14.1758C23.0027 14.1568 22.9467 14.1378 22.9023 14.126C22.7599 14.0881 22.6165 14.0535 22.4727 14.0215C22.6168 14.0533 22.7606 14.088 22.9033 14.126ZM12.9512 12.874C12.8673 12.9326 12.7707 13.0037 12.6758 13.0752C12.5813 13.1466 12.4881 13.2184 12.4111 13.2783C12.3296 13.3419 12.2565 13.3999 12.2041 13.4414C12.1781 13.462 12.1565 13.4793 12.1416 13.4912C12.1346 13.4968 12.128 13.5017 12.124 13.5049C12.1223 13.5063 12.1203 13.5078 12.1191 13.5088L12.1172 13.5107H12.1162L12.1182 13.5088C12.1192 13.5079 12.1221 13.5064 12.124 13.5049L12.1406 13.4912C12.1555 13.4794 12.177 13.4611 12.2031 13.4404L12.4111 13.2783C12.4882 13.2183 12.5811 13.1457 12.6758 13.0742C12.7706 13.0027 12.8673 12.9316 12.9512 12.873V12.874ZM25.9697 11.8398L25.9756 11.8428C25.9741 11.8422 25.9726 11.8422 25.9717 11.8418L25.9697 11.8408C25.9588 11.8354 25.9466 11.8294 25.9355 11.8242C25.9465 11.8293 25.9589 11.8345 25.9697 11.8398ZM15.8701 11.3584C15.5246 11.4841 15.1828 11.6239 14.8477 11.7803H14.8467C15.1821 11.6237 15.5244 11.4832 15.8701 11.3574V11.3584ZM18.0674 10.7715L18.0332 10.7773C17.8255 10.8141 17.5473 10.8759 17.3486 10.9219L17 11.0049V11.0039C17.0192 10.9992 17.0474 10.9934 17.0811 10.9854C17.1487 10.9691 17.243 10.9461 17.3477 10.9219C17.5464 10.8759 17.8254 10.8131 18.0332 10.7764L18.0674 10.7715ZM20.2949 10.5781C19.9149 10.5785 19.5343 10.5953 19.1553 10.6289C18.9445 10.6476 18.6606 10.6861 18.457 10.7148C18.3495 10.73 18.2521 10.7435 18.1826 10.7539C18.148 10.7591 18.1193 10.7636 18.0996 10.7666C18.0902 10.768 18.0825 10.7687 18.0771 10.7695L18.0996 10.7656L18.1826 10.7539C18.252 10.7435 18.3488 10.729 18.4561 10.7139C18.6595 10.6851 18.9435 10.6467 19.1543 10.6279C19.5332 10.5943 19.914 10.5785 20.2939 10.5781H20.2949ZM21.29 10.6152L21.375 10.6211C21.3547 10.6198 21.3255 10.6183 21.29 10.6162C21.2186 10.612 21.1191 10.6062 21.0088 10.6006L21.29 10.6152ZM16.8623 10.5674C16.8601 10.568 16.8578 10.568 16.8564 10.5684L16.8545 10.5693H16.8535L16.8584 10.5674C16.8593 10.5671 16.861 10.5676 16.8623 10.5674ZM16.917 10.5566C16.9144 10.5569 16.9103 10.557 16.9062 10.5576C16.9082 10.5573 16.9104 10.5569 16.9121 10.5566C16.9162 10.5561 16.9202 10.5559 16.9229 10.5557C16.9213 10.5559 16.9191 10.5564 16.917 10.5566Z" fill="#3161FE"/>
</g>
<path d="M56.44 30L61.434 14.16H65.317L70.311 30H67.583L63.051 15.788H63.645L59.168 30H56.44ZM59.223 26.568V24.093H67.539V26.568H59.223ZM72.7398 30V13.83H75.3908V30H72.7398ZM93.1728 30V22.784C93.1728 21.97 92.9711 21.3357 92.5678 20.881C92.1644 20.419 91.6181 20.188 90.9288 20.188C90.5034 20.188 90.1221 20.287 89.7848 20.485C89.4474 20.6757 89.1798 20.9617 88.9818 21.343C88.7838 21.717 88.6848 22.1643 88.6848 22.685L87.5078 21.992C87.5004 21.1707 87.6838 20.4483 88.0578 19.825C88.4391 19.1943 88.9524 18.703 89.5978 18.351C90.2431 17.999 90.9618 17.823 91.7538 17.823C93.0664 17.823 94.0711 18.219 94.7678 19.011C95.4718 19.7957 95.8238 20.8297 95.8238 22.113V30H93.1728ZM78.8838 30V18.12H81.2268V21.805H81.5568V30H78.8838ZM86.0448 30V22.817C86.0448 21.9883 85.8431 21.343 85.4398 20.881C85.0364 20.419 84.4864 20.188 83.7898 20.188C83.1151 20.188 82.5724 20.419 82.1618 20.881C81.7584 21.343 81.5568 21.9443 81.5568 22.685L80.3688 21.893C80.3688 21.123 80.5594 20.43 80.9408 19.814C81.3221 19.198 81.8354 18.714 82.4808 18.362C83.1334 18.0027 83.8631 17.823 84.6698 17.823C85.5571 17.823 86.2978 18.0137 86.8918 18.395C87.4931 18.769 87.9404 19.2823 88.2338 19.935C88.5344 20.5803 88.6848 21.31 88.6848 22.124V30H86.0448ZM102.235 30.33C101.377 30.33 100.651 30.1687 100.057 29.846C99.4629 29.516 99.0119 29.0797 98.7039 28.537C98.4032 27.9943 98.2529 27.3967 98.2529 26.744C98.2529 26.172 98.3482 25.6587 98.5389 25.204C98.7296 24.742 99.0229 24.346 99.4189 24.016C99.8149 23.6787 100.328 23.4037 100.959 23.191C101.436 23.037 101.993 22.8977 102.631 22.773C103.276 22.6483 103.973 22.5347 104.721 22.432C105.476 22.322 106.265 22.2047 107.086 22.08L106.14 22.619C106.147 21.7977 105.964 21.1927 105.59 20.804C105.216 20.4153 104.585 20.221 103.698 20.221C103.163 20.221 102.646 20.3457 102.147 20.595C101.648 20.8443 101.3 21.2733 101.102 21.882L98.6819 21.123C98.9752 20.1183 99.5326 19.3117 100.354 18.703C101.183 18.0943 102.297 17.79 103.698 17.79C104.754 17.79 105.682 17.9623 106.481 18.307C107.288 18.6517 107.885 19.2163 108.274 20.001C108.487 20.419 108.615 20.848 108.659 21.288C108.703 21.7207 108.725 22.1937 108.725 22.707V30H106.404V27.426L106.789 27.844C106.254 28.702 105.627 29.3327 104.908 29.736C104.197 30.132 103.306 30.33 102.235 30.33ZM102.763 28.218C103.364 28.218 103.878 28.1117 104.303 27.899C104.728 27.6863 105.066 27.426 105.315 27.118C105.572 26.81 105.744 26.5203 105.832 26.249C105.971 25.9117 106.048 25.5267 106.063 25.094C106.085 24.654 106.096 24.2983 106.096 24.027L106.91 24.269C106.111 24.3937 105.425 24.5037 104.853 24.599C104.281 24.6943 103.79 24.786 103.379 24.874C102.968 24.9547 102.605 25.0463 102.29 25.149C101.982 25.259 101.722 25.3873 101.509 25.534C101.296 25.6807 101.131 25.8493 101.014 26.04C100.904 26.2307 100.849 26.4543 100.849 26.711C100.849 27.0043 100.922 27.2647 101.069 27.492C101.216 27.712 101.428 27.888 101.707 28.02C101.993 28.152 102.345 28.218 102.763 28.218ZM116.433 30V14.16H121.482C121.614 14.16 121.874 14.1637 122.263 14.171C122.659 14.1783 123.04 14.204 123.407 14.248C124.661 14.4093 125.721 14.8567 126.586 15.59C127.459 16.316 128.119 17.2437 128.566 18.373C129.013 19.5023 129.237 20.738 129.237 22.08C129.237 23.422 129.013 24.6577 128.566 25.787C128.119 26.9163 127.459 27.8477 126.586 28.581C125.721 29.307 124.661 29.7507 123.407 29.912C123.048 29.956 122.67 29.9817 122.274 29.989C121.878 29.9963 121.614 30 121.482 30H116.433ZM119.128 27.503H121.482C121.702 27.503 121.981 27.4957 122.318 27.481C122.663 27.4663 122.967 27.4333 123.231 27.382C123.979 27.2427 124.588 26.909 125.057 26.381C125.526 25.853 125.871 25.2113 126.091 24.456C126.318 23.7007 126.432 22.9087 126.432 22.08C126.432 21.222 126.318 20.4153 126.091 19.66C125.864 18.9047 125.512 18.2703 125.035 17.757C124.566 17.2437 123.964 16.9173 123.231 16.778C122.967 16.7193 122.663 16.6863 122.318 16.679C121.981 16.6643 121.702 16.657 121.482 16.657H119.128V27.503ZM137.458 30.33C136.256 30.33 135.2 30.0697 134.29 29.549C133.381 29.0283 132.67 28.306 132.156 27.382C131.65 26.458 131.397 25.3947 131.397 24.192C131.397 22.894 131.647 21.7683 132.145 20.815C132.644 19.8543 133.337 19.11 134.224 18.582C135.112 18.054 136.138 17.79 137.304 17.79C138.536 17.79 139.581 18.0797 140.439 18.659C141.305 19.231 141.946 20.0413 142.364 21.09C142.782 22.1387 142.94 23.3743 142.837 24.797H140.208V23.829C140.201 22.5383 139.974 21.596 139.526 21.002C139.079 20.408 138.375 20.111 137.414 20.111C136.329 20.111 135.522 20.4483 134.994 21.123C134.466 21.7903 134.202 22.7693 134.202 24.06C134.202 25.2627 134.466 26.194 134.994 26.854C135.522 27.514 136.292 27.844 137.304 27.844C137.957 27.844 138.518 27.701 138.987 27.415C139.464 27.1217 139.831 26.7 140.087 26.15L142.705 26.942C142.251 28.0127 141.547 28.845 140.593 29.439C139.647 30.033 138.602 30.33 137.458 30.33ZM133.366 24.797V22.795H141.539V24.797H133.366ZM150.099 30.33C148.632 30.33 147.44 30 146.524 29.34C145.607 28.68 145.05 27.7523 144.852 26.557L147.558 26.139C147.697 26.7257 148.005 27.1877 148.482 27.525C148.958 27.8623 149.56 28.031 150.286 28.031C150.924 28.031 151.415 27.9063 151.76 27.657C152.112 27.4003 152.288 27.052 152.288 26.612C152.288 26.3407 152.222 26.1243 152.09 25.963C151.965 25.7943 151.686 25.633 151.254 25.479C150.821 25.325 150.157 25.1307 149.263 24.896C148.265 24.632 147.473 24.3497 146.887 24.049C146.3 23.741 145.878 23.378 145.622 22.96C145.365 22.542 145.237 22.036 145.237 21.442C145.237 20.7013 145.431 20.056 145.82 19.506C146.208 18.956 146.751 18.5343 147.448 18.241C148.144 17.9403 148.966 17.79 149.912 17.79C150.836 17.79 151.653 17.933 152.365 18.219C153.083 18.505 153.663 18.912 154.103 19.44C154.543 19.968 154.814 20.5877 154.917 21.299L152.211 21.783C152.145 21.277 151.914 20.8773 151.518 20.584C151.129 20.2907 150.608 20.1257 149.956 20.089C149.332 20.0523 148.83 20.1477 148.449 20.375C148.067 20.595 147.877 20.9067 147.877 21.31C147.877 21.5373 147.954 21.7317 148.108 21.893C148.262 22.0543 148.57 22.2157 149.032 22.377C149.501 22.5383 150.198 22.7363 151.122 22.971C152.068 23.213 152.823 23.4917 153.388 23.807C153.96 24.115 154.37 24.4853 154.62 24.918C154.876 25.3507 155.005 25.875 155.005 26.491C155.005 27.6863 154.568 28.625 153.696 29.307C152.83 29.989 151.631 30.33 150.099 30.33ZM157.854 16.316V13.885H160.505V16.316H157.854ZM157.854 30V18.12H160.505V30H157.854ZM169.014 35.61C168.354 35.61 167.72 35.5073 167.111 35.302C166.51 35.0967 165.967 34.7997 165.483 34.411C164.999 34.0297 164.603 33.5677 164.295 33.025L166.737 31.815C166.964 32.2477 167.283 32.5667 167.694 32.772C168.112 32.9847 168.556 33.091 169.025 33.091C169.575 33.091 170.066 32.992 170.499 32.794C170.932 32.6033 171.265 32.3173 171.5 31.936C171.742 31.562 171.856 31.0927 171.841 30.528V27.151H172.171V18.12H174.492V30.572C174.492 30.8727 174.477 31.1587 174.448 31.43C174.426 31.7087 174.386 31.98 174.327 32.244C174.151 33.014 173.814 33.6447 173.315 34.136C172.816 34.6347 172.197 35.005 171.456 35.247C170.723 35.489 169.909 35.61 169.014 35.61ZM168.783 30.33C167.69 30.33 166.737 30.055 165.923 29.505C165.109 28.955 164.478 28.207 164.031 27.261C163.584 26.315 163.36 25.248 163.36 24.06C163.36 22.8573 163.584 21.7867 164.031 20.848C164.486 19.902 165.127 19.1577 165.956 18.615C166.785 18.065 167.76 17.79 168.882 17.79C170.011 17.79 170.957 18.065 171.72 18.615C172.49 19.1577 173.073 19.902 173.469 20.848C173.865 21.794 174.063 22.8647 174.063 24.06C174.063 25.2407 173.865 26.3077 173.469 27.261C173.073 28.207 172.483 28.955 171.698 29.505C170.913 30.055 169.942 30.33 168.783 30.33ZM169.19 27.954C169.901 27.954 170.473 27.7927 170.906 27.47C171.346 27.14 171.665 26.6817 171.863 26.095C172.068 25.5083 172.171 24.83 172.171 24.06C172.171 23.2827 172.068 22.6043 171.863 22.025C171.665 21.4383 171.353 20.9837 170.928 20.661C170.503 20.331 169.953 20.166 169.278 20.166C168.567 20.166 167.98 20.342 167.518 20.694C167.056 21.0387 166.715 21.508 166.495 22.102C166.275 22.6887 166.165 23.3413 166.165 24.06C166.165 24.786 166.271 25.446 166.484 26.04C166.704 26.6267 167.038 27.0923 167.485 27.437C167.932 27.7817 168.501 27.954 169.19 27.954ZM186.014 30V24.28C186.014 23.906 185.988 23.4917 185.937 23.037C185.885 22.5823 185.764 22.146 185.574 21.728C185.39 21.3027 185.112 20.9543 184.738 20.683C184.371 20.4117 183.872 20.276 183.242 20.276C182.904 20.276 182.571 20.331 182.241 20.441C181.911 20.551 181.61 20.7417 181.339 21.013C181.075 21.277 180.862 21.6437 180.701 22.113C180.539 22.575 180.459 23.169 180.459 23.895L178.886 23.224C178.886 22.212 179.08 21.2953 179.469 20.474C179.865 19.6527 180.444 19 181.207 18.516C181.969 18.0247 182.908 17.779 184.023 17.779C184.903 17.779 185.629 17.9257 186.201 18.219C186.773 18.5123 187.227 18.8863 187.565 19.341C187.902 19.7957 188.151 20.2797 188.313 20.793C188.474 21.3063 188.577 21.794 188.621 22.256C188.672 22.7107 188.698 23.081 188.698 23.367V30H186.014ZM177.775 30V18.12H180.14V21.805H180.459V30H177.775ZM202.275 30.33C201.117 30.33 200.072 30.1283 199.14 29.725C198.216 29.3217 197.454 28.746 196.852 27.998C196.258 27.2427 195.881 26.348 195.719 25.314L198.469 24.896C198.704 25.8347 199.184 26.5607 199.91 27.074C200.644 27.5873 201.487 27.844 202.44 27.844C203.005 27.844 203.537 27.756 204.035 27.58C204.534 27.404 204.937 27.1473 205.245 26.81C205.561 26.4727 205.718 26.0583 205.718 25.567C205.718 25.347 205.682 25.1453 205.608 24.962C205.535 24.7713 205.425 24.6027 205.278 24.456C205.139 24.3093 204.956 24.1773 204.728 24.06C204.508 23.9353 204.252 23.829 203.958 23.741L199.866 22.531C199.514 22.4283 199.133 22.2927 198.722 22.124C198.319 21.948 197.934 21.7097 197.567 21.409C197.208 21.101 196.911 20.7123 196.676 20.243C196.449 19.7663 196.335 19.1797 196.335 18.483C196.335 17.4637 196.592 16.6093 197.105 15.92C197.626 15.2233 198.323 14.7027 199.195 14.358C200.075 14.0133 201.051 13.8447 202.121 13.852C203.207 13.8593 204.175 14.0463 205.025 14.413C205.876 14.7723 206.587 15.2967 207.159 15.986C207.731 16.6753 208.135 17.5077 208.369 18.483L205.52 18.978C205.403 18.4207 205.176 17.9477 204.838 17.559C204.508 17.163 204.101 16.8623 203.617 16.657C203.141 16.4517 202.631 16.3417 202.088 16.327C201.56 16.3197 201.069 16.4003 200.614 16.569C200.167 16.7303 199.804 16.965 199.525 17.273C199.254 17.581 199.118 17.9403 199.118 18.351C199.118 18.7397 199.236 19.0587 199.47 19.308C199.705 19.55 199.995 19.7443 200.339 19.891C200.691 20.0303 201.047 20.1477 201.406 20.243L204.244 21.035C204.633 21.1377 205.069 21.277 205.553 21.453C206.037 21.629 206.503 21.8747 206.95 22.19C207.398 22.5053 207.764 22.9197 208.05 23.433C208.344 23.9463 208.49 24.599 208.49 25.391C208.49 26.2123 208.318 26.9347 207.973 27.558C207.636 28.174 207.178 28.6873 206.598 29.098C206.019 29.5087 205.355 29.8167 204.607 30.022C203.867 30.2273 203.089 30.33 202.275 30.33ZM212.439 35.28L214.727 28.999L214.771 30.847L209.59 18.12H212.351L216.025 27.536H215.321L218.896 18.12H221.547L214.925 35.28H212.439ZM227.994 30.33C226.527 30.33 225.336 30 224.419 29.34C223.502 28.68 222.945 27.7523 222.747 26.557L225.453 26.139C225.592 26.7257 225.9 27.1877 226.377 27.525C226.854 27.8623 227.455 28.031 228.181 28.031C228.819 28.031 229.31 27.9063 229.655 27.657C230.007 27.4003 230.183 27.052 230.183 26.612C230.183 26.3407 230.117 26.1243 229.985 25.963C229.86 25.7943 229.582 25.633 229.149 25.479C228.716 25.325 228.053 25.1307 227.158 24.896C226.161 24.632 225.369 24.3497 224.782 24.049C224.195 23.741 223.774 23.378 223.517 22.96C223.26 22.542 223.132 22.036 223.132 21.442C223.132 20.7013 223.326 20.056 223.715 19.506C224.104 18.956 224.646 18.5343 225.343 18.241C226.04 17.9403 226.861 17.79 227.807 17.79C228.731 17.79 229.549 17.933 230.26 18.219C230.979 18.505 231.558 18.912 231.998 19.44C232.438 19.968 232.709 20.5877 232.812 21.299L230.106 21.783C230.04 21.277 229.809 20.8773 229.413 20.584C229.024 20.2907 228.504 20.1257 227.851 20.089C227.228 20.0523 226.725 20.1477 226.344 20.375C225.963 20.595 225.772 20.9067 225.772 21.31C225.772 21.5373 225.849 21.7317 226.003 21.893C226.157 22.0543 226.465 22.2157 226.927 22.377C227.396 22.5383 228.093 22.7363 229.017 22.971C229.963 23.213 230.718 23.4917 231.283 23.807C231.855 24.115 232.266 24.4853 232.515 24.918C232.772 25.3507 232.9 25.875 232.9 26.491C232.9 27.6863 232.464 28.625 231.591 29.307C230.726 29.989 229.527 30.33 227.994 30.33ZM242.492 30C241.708 30.1467 240.938 30.209 240.182 30.187C239.434 30.1723 238.763 30.0367 238.169 29.78C237.575 29.516 237.124 29.1017 236.816 28.537C236.545 28.0237 236.402 27.4993 236.387 26.964C236.373 26.4287 236.365 25.8237 236.365 25.149V14.82H239.005V24.995C239.005 25.4717 239.009 25.8897 239.016 26.249C239.031 26.6083 239.108 26.9017 239.247 27.129C239.511 27.569 239.933 27.8147 240.512 27.866C241.092 27.9173 241.752 27.888 242.492 27.778V30ZM234.209 20.199V18.12H242.492V20.199H234.209ZM250.066 30.33C248.864 30.33 247.808 30.0697 246.898 29.549C245.989 29.0283 245.278 28.306 244.764 27.382C244.258 26.458 244.005 25.3947 244.005 24.192C244.005 22.894 244.255 21.7683 244.753 20.815C245.252 19.8543 245.945 19.11 246.832 18.582C247.72 18.054 248.746 17.79 249.912 17.79C251.144 17.79 252.189 18.0797 253.047 18.659C253.913 19.231 254.554 20.0413 254.972 21.09C255.39 22.1387 255.548 23.3743 255.445 24.797H252.816V23.829C252.809 22.5383 252.582 21.596 252.134 21.002C251.687 20.408 250.983 20.111 250.022 20.111C248.937 20.111 248.13 20.4483 247.602 21.123C247.074 21.7903 246.81 22.7693 246.81 24.06C246.81 25.2627 247.074 26.194 247.602 26.854C248.13 27.514 248.9 27.844 249.912 27.844C250.565 27.844 251.126 27.701 251.595 27.415C252.072 27.1217 252.439 26.7 252.695 26.15L255.313 26.942C254.859 28.0127 254.155 28.845 253.201 29.439C252.255 30.033 251.21 30.33 250.066 30.33ZM245.974 24.797V22.795H254.147V24.797H245.974ZM272.065 30V22.784C272.065 21.97 271.863 21.3357 271.46 20.881C271.056 20.419 270.51 20.188 269.821 20.188C269.395 20.188 269.014 20.287 268.677 20.485C268.339 20.6757 268.072 20.9617 267.874 21.343C267.676 21.717 267.577 22.1643 267.577 22.685L266.4 21.992C266.392 21.1707 266.576 20.4483 266.95 19.825C267.331 19.1943 267.844 18.703 268.49 18.351C269.135 17.999 269.854 17.823 270.646 17.823C271.958 17.823 272.963 18.219 273.66 19.011C274.364 19.7957 274.716 20.8297 274.716 22.113V30H272.065ZM257.776 30V18.12H260.119V21.805H260.449V30H257.776ZM264.937 30V22.817C264.937 21.9883 264.735 21.343 264.332 20.881C263.928 20.419 263.378 20.188 262.682 20.188C262.007 20.188 261.464 20.419 261.054 20.881C260.65 21.343 260.449 21.9443 260.449 22.685L259.261 21.893C259.261 21.123 259.451 20.43 259.833 19.814C260.214 19.198 260.727 18.714 261.373 18.362C262.025 18.0027 262.755 17.823 263.562 17.823C264.449 17.823 265.19 18.0137 265.784 18.395C266.385 18.769 266.832 19.2823 267.126 19.935C267.426 20.5803 267.577 21.31 267.577 22.124V30H264.937Z" fill="black"/>
<defs>
<clipPath id="clip0_335_67524">
<rect width="44" height="44" rx="11" fill="white"/>
</clipPath>
</defs>
</svg>
