<svg width="252" height="40" viewBox="0 0 252 40" fill="none" xmlns="http://www.w3.org/2000/svg">
<g clip-path="url(#clip0_355_67687)">
<path d="M20 0C29.4281 0 34.1424 -0.000221251 37.0713 2.92871C40.0002 5.85764 40 10.5719 40 20C40 29.4281 40.0002 34.1424 37.0713 37.0713C34.1424 40.0002 29.4281 40 20 40C10.5719 40 5.85764 40.0002 2.92871 37.0713C-0.000221251 34.1424 0 29.4281 0 20C0 10.5719 -0.000221251 5.85764 2.92871 2.92871C5.85764 -0.000221251 10.5719 0 20 0ZM18.2773 9.2002L18.2734 9.2041C17.9748 9.20849 17.6757 9.22155 17.377 9.24805C17.1731 9.26613 16.9051 9.30208 16.7207 9.32812L16.4678 9.36426C16.4395 9.36848 16.4154 9.37228 16.3975 9.375H16.2529L16.2197 9.4082C16.0381 9.44337 15.8292 9.48837 15.6777 9.52344C15.5803 9.54601 15.4913 9.5677 15.4316 9.58203C15.4193 9.585 15.4076 9.5881 15.3955 9.59082C15.3849 9.59322 15.3694 9.59646 15.3564 9.59961H15.3555C15.3476 9.60155 15.3406 9.60389 15.335 9.60547C15.3334 9.60583 15.3317 9.60604 15.3301 9.60645L15.3174 9.60938L15.2871 9.61719C15.1181 9.66255 14.9501 9.71191 14.7832 9.76465L14.2852 9.93457C13.9604 10.0527 13.6381 10.1842 13.3213 10.332C13.165 10.4048 13.0104 10.4818 12.8574 10.5615L12.4033 10.8105C12.1059 10.9818 11.8157 11.1662 11.5352 11.3623C11.3729 11.4756 11.1673 11.6341 11.0273 11.7432C10.9528 11.8013 10.8848 11.8539 10.8359 11.8926L10.7773 11.9395C10.7755 11.9409 10.7737 11.9426 10.7715 11.9443C10.7695 11.9459 10.7651 11.9494 10.7617 11.9521L10.7607 11.9531C10.758 11.9553 10.7554 11.9578 10.7539 11.959H10.752V11.96L10.75 11.9609V11.9619L10.7285 11.9785L10.7227 11.9844C10.4636 12.2013 10.2132 12.4299 9.97363 12.6689C9.85609 12.7863 9.73928 12.907 9.62598 13.0303L9.62012 13.0371L9.2998 13.4014L9.29395 13.4092C9.0831 13.6598 8.88326 13.9193 8.69531 14.1855C8.69474 14.1863 8.69296 14.1883 8.69141 14.1904L8.68359 14.2012C8.58916 14.3357 8.49686 14.4727 8.4082 14.6113L8.40332 14.6191L8.15625 15.0254L8.15234 15.0332C7.98694 15.318 7.83396 15.6096 7.69531 15.9053C7.62635 16.0523 7.55982 16.2019 7.49707 16.3525L7.49316 16.3623L7.32227 16.8008L7.31934 16.8086C7.20845 17.1115 7.11045 17.4198 7.02637 17.7314C6.94301 18.0403 6.87344 18.3537 6.81738 18.668C6.76141 18.9813 6.71857 19.3007 6.69043 19.6162C6.66246 19.9304 6.64762 20.2467 6.64746 20.5625C6.64704 20.8749 6.66095 21.1872 6.6875 21.4971V21.498C6.68932 21.5189 6.69355 21.5417 6.69629 21.5654L6.69434 21.5664H6.69531L6.69434 21.5674C6.69609 21.5831 6.69902 21.6064 6.70215 21.6338C6.70839 21.6886 6.71713 21.7662 6.72754 21.8516C6.74671 22.0087 6.7762 22.2446 6.80762 22.4238L6.81641 22.4277L6.81055 22.4287C6.82566 22.508 6.87888 22.7521 6.90625 22.876C6.91639 22.9219 6.92699 22.9682 6.93652 23.0117C6.94601 23.055 6.95513 23.0967 6.96289 23.1318C6.96668 23.149 6.97052 23.1656 6.97363 23.1797C6.9767 23.1936 6.97927 23.206 6.98145 23.2158L6.98242 23.2217C6.98278 23.2229 6.98397 23.2255 6.98438 23.2275L6.9873 23.2451L6.99414 23.2695C6.99369 23.268 6.99278 23.2657 6.99219 23.2637L7.00586 23.3203L7.00879 23.3291C7.05526 23.5021 7.12576 23.7241 7.17383 23.8721C7.21852 24.0097 7.25855 24.1294 7.2666 24.1533V24.1543C7.27315 24.1738 7.2834 24.201 7.28418 24.2031C7.3877 24.4872 7.504 24.767 7.63184 25.041C7.75907 25.3137 7.89959 25.5835 8.04883 25.8418C8.12333 25.9706 8.20097 26.0989 8.28125 26.2246L8.28613 26.2324L8.52441 26.5889L8.53027 26.5957C8.7005 26.8388 8.88188 27.0756 9.07031 27.2998C9.2596 27.5249 9.46064 27.7426 9.66699 27.9482C9.77007 28.051 9.87571 28.1518 9.9834 28.25L10.3135 28.5381C10.5156 28.7075 10.7257 28.8668 10.9385 29.0176L10.9473 29.0264H10.9482C10.9528 29.0297 10.9574 29.033 10.959 29.0342L10.96 29.0352L10.9668 29.04L10.9727 29.0439C10.9773 29.0473 10.9817 29.0508 10.9844 29.0527L10.9902 29.0566L10.9912 29.0576V29.0566L10.9932 29.0586L11.002 29.0645L11.0029 29.0654C11.0045 29.0665 11.0076 29.0681 11.0107 29.0703V29.0713C11.014 29.0736 11.0184 29.0764 11.0225 29.0791V29.0781L11.0244 29.0801C11.0335 29.0862 11.0462 29.0955 11.0557 29.1016H11.0566L11.0586 29.1025C11.2716 29.2487 11.4924 29.3894 11.7207 29.5205L12.0957 29.7256C12.2219 29.7909 12.3494 29.8536 12.4775 29.9131C12.4824 29.9153 12.5005 29.9231 12.5156 29.9297L12.5186 29.9316C12.5213 29.9328 12.5242 29.9337 12.5264 29.9346C12.5291 29.9358 12.5329 29.9376 12.5371 29.9395L12.5273 29.9346C12.5304 29.9358 12.5329 29.937 12.5342 29.9375C12.5354 29.9381 12.5367 29.9393 12.5371 29.9395C12.5503 29.9452 12.5699 29.954 12.5928 29.9639C12.6367 29.9828 12.7011 30.0109 12.7725 30.041C12.9027 30.096 13.1005 30.1778 13.2568 30.2344C13.5206 30.3299 13.7888 30.4129 14.0537 30.4834C14.3203 30.5544 14.5894 30.6137 14.8594 30.6611H14.8584L14.876 30.6641L14.8779 30.665C14.9017 30.6688 15.3872 30.7427 15.6797 30.7676L16.083 30.793C16.159 30.7961 16.2353 30.7956 16.3115 30.7969L16.3164 30.8018H16.4893C16.7572 30.8014 17.0276 30.7902 17.2939 30.7666C17.4857 30.7496 17.6766 30.7225 17.8662 30.6934L17.8721 30.6992L18.0859 30.6611C18.2421 30.6335 18.4386 30.5897 18.5645 30.5605C18.5835 30.5561 18.6023 30.5511 18.6201 30.5469L18.625 30.5518L18.8564 30.4902C19.1084 30.4227 19.3596 30.3427 19.6035 30.2539V30.2529C19.8461 30.1647 20.0863 30.0665 20.3193 29.958C20.5536 29.8492 20.7815 29.7292 21.0029 29.6016L21.0039 29.6025L21.0117 29.5977L21.3223 29.4092L21.3291 29.4043C21.4353 29.3368 21.5417 29.2666 21.6465 29.1934L21.9502 28.9717C22.0493 28.8957 22.1463 28.8175 22.2412 28.7383C22.2543 28.7274 22.2697 28.714 22.2852 28.7002L22.2842 28.6992C22.3016 28.6839 22.3792 28.6178 22.4561 28.5488C22.5452 28.4688 22.685 28.3416 22.791 28.2363L22.7949 28.2324C22.8155 28.2119 23.1242 27.8919 23.2949 27.6895L23.3008 27.6816L23.5195 27.4102L23.5254 27.4033C23.5997 27.3069 23.6718 27.2076 23.7422 27.1074C23.8803 26.9109 24.0103 26.7084 24.1299 26.5029L24.3271 26.1641L24.3145 26.1553C24.3697 26.051 24.4258 25.9463 24.4639 25.8652L24.6367 25.4971L24.623 25.4902C24.665 25.3898 24.7074 25.288 24.7373 25.2061L24.8291 24.9561L24.8242 24.9512C24.8692 24.8154 24.9117 24.6778 24.9492 24.5391C25.0098 24.3148 25.0603 24.0881 25.1006 23.8623C25.1411 23.6357 25.1712 23.407 25.1914 23.1816C25.2117 22.9552 25.2225 22.7257 25.2227 22.4971C25.2227 22.3867 25.2205 22.2755 25.2158 22.1641L25.1943 21.8271C25.1751 21.6043 25.1451 21.3843 25.1074 21.1689C25.0886 21.0614 25.0676 20.953 25.0439 20.8457L25.042 20.8369L24.9688 20.5361L24.9658 20.5273L24.875 20.2119C24.8422 20.1078 24.8069 20.0045 24.7705 19.9043C24.7244 19.7774 24.6606 19.6249 24.6221 19.5342C24.6056 19.4955 24.5886 19.4582 24.5762 19.4297V19.4258L24.54 19.3457C24.5387 19.3428 24.5372 19.3401 24.5361 19.3379C24.5325 19.33 24.5294 19.3227 24.5273 19.3184C24.5239 19.3112 24.5233 19.3096 24.5225 19.3076C24.4664 19.1877 24.3916 19.0441 24.3457 18.958C24.3195 18.9089 24.2942 18.8642 24.2783 18.835C24.2756 18.8299 24.2735 18.8241 24.2705 18.8184C24.268 18.8136 24.2629 18.8044 24.2588 18.7969L24.2568 18.7949C24.2566 18.7945 24.2563 18.7929 24.2559 18.792L24.2529 18.7871V18.7861L24.2266 18.7344L24.2188 18.7266L24.0713 18.4854L24.0674 18.4785L23.8896 18.2139H23.8887C23.7702 18.0449 23.6436 17.8795 23.5098 17.7207C23.4451 17.644 23.378 17.5667 23.3086 17.4912L23.3027 17.4854L23.1016 17.2764V17.2754L23.0957 17.2695L22.8789 17.0635H22.8799L22.8721 17.0576L22.6592 16.8711L22.6455 16.8594L22.4248 16.6826L22.418 16.6768L22.4102 16.6719L22.1836 16.5059H22.1846L22.1768 16.501C22.0142 16.3875 21.8474 16.2817 21.6787 16.1846C21.5229 16.0949 21.3626 16.0119 21.1982 15.9346H21.1973C20.1514 15.4122 18.8892 15.2247 17.9844 15.2246H17.5674V18.9746H17.9844C18.4974 18.9747 19.1453 19.0997 19.5244 19.29C19.5466 19.3012 19.5696 19.3116 19.582 19.3174C19.6568 19.3518 19.7323 19.3912 19.8076 19.4346L20.0293 19.5752L20.1387 19.6562H20.1396C20.1769 19.6847 20.2128 19.7124 20.2461 19.7402L20.4463 19.9238L20.4512 19.9287C20.5172 19.9944 20.5817 20.0653 20.6436 20.1387C20.7051 20.2116 20.7643 20.2891 20.8203 20.3691L20.8232 20.3721V20.373C20.8752 20.447 20.926 20.525 20.9736 20.6064L20.9834 20.624V20.625C20.9965 20.649 21.0157 20.6834 21.0361 20.7217C21.073 20.7908 21.1017 20.8492 21.1172 20.8809H21.1182C21.12 20.885 21.122 20.8892 21.123 20.8916C21.124 20.8936 21.1256 20.8956 21.126 20.8965V20.8975C21.1369 20.9227 21.1523 20.9595 21.1699 21.001C21.2049 21.0834 21.23 21.1466 21.2412 21.1758H21.2422L21.2998 21.3477C21.3154 21.3975 21.3303 21.4473 21.3428 21.4941C21.3712 21.6009 21.3954 21.7098 21.4141 21.8164C21.4337 21.9288 21.4486 22.0411 21.458 22.1504C21.4678 22.2629 21.4727 22.3785 21.4727 22.4951C21.4726 22.5486 21.4712 22.6041 21.4688 22.6611L21.457 22.8467C21.4463 22.9665 21.4298 23.0877 21.4092 23.2031C21.399 23.2603 21.3875 23.3184 21.375 23.375L21.3291 23.5605C21.2985 23.6735 21.2623 23.7857 21.2227 23.8955V23.8975L21.2148 23.9199C21.2024 23.9539 21.1683 24.0397 21.124 24.1436C21.104 24.1905 21.0853 24.2338 21.0723 24.2637C21.0708 24.2671 21.0692 24.2695 21.0684 24.2715C21.0623 24.2845 21.0482 24.314 21.0264 24.3564C21.0049 24.3981 20.9805 24.4447 20.9551 24.4922C20.9302 24.5387 20.9082 24.5798 20.8926 24.6084C20.8928 24.608 20.892 24.6084 20.8896 24.6123C20.8888 24.6139 20.8867 24.6188 20.8848 24.6221C20.8838 24.6238 20.8824 24.6263 20.8809 24.6289C20.8155 24.7405 20.7462 24.8481 20.6738 24.9512C20.5967 25.0609 20.5131 25.1687 20.4258 25.2725C20.3979 25.3055 20.3308 25.3813 20.25 25.4678L20.1543 25.5684L20.1318 25.5908C20.0928 25.6284 20.0259 25.6907 19.9512 25.7578C19.8956 25.8077 19.8561 25.842 19.8262 25.8682C19.7176 25.9583 19.6081 26.0422 19.498 26.1191C19.4413 26.1589 19.3831 26.1983 19.3252 26.2354L19.123 26.3574C19.0002 26.428 18.8749 26.4919 18.749 26.5508L18.7363 26.5576C18.5998 26.6212 18.46 26.68 18.3213 26.7305C18.1834 26.7807 18.0399 26.8255 17.8965 26.8643C17.8912 26.8655 17.8942 26.8644 17.8662 26.8711C17.8264 26.8807 17.7752 26.8932 17.7188 26.9062C17.5911 26.9358 17.4808 26.9593 17.4326 26.9678L17.4014 26.9727C17.2569 26.9974 17.1104 27.0173 16.9639 27.0303C16.8066 27.0442 16.6437 27.0515 16.4834 27.0518C16.3236 27.052 16.1616 27.0451 16 27.0312L15.9961 27.0303C15.9409 27.0255 15.8221 27.012 15.6865 26.9932C15.6259 26.9847 15.5724 26.9762 15.5283 26.9697C15.523 26.9689 15.5175 26.9679 15.5107 26.9668C15.5079 26.9663 15.5027 26.9664 15.499 26.9658C15.4976 26.9656 15.4959 26.9651 15.4941 26.9648H15.4951C15.3328 26.9359 15.1741 26.9015 15.0195 26.8604C14.8556 26.8167 14.691 26.7648 14.5342 26.708C14.4791 26.688 14.3616 26.6413 14.2305 26.5859C14.1711 26.5609 14.1165 26.5375 14.0771 26.5205C14.0735 26.5189 14.0694 26.5164 14.0635 26.5137C14.061 26.5125 14.0563 26.5104 14.0527 26.5088L14.0371 26.502C13.8842 26.4304 13.7352 26.3536 13.5928 26.2715L13.3613 26.1318C13.2884 26.0855 13.2156 26.0365 13.1436 25.9863C13.07 25.935 12.9974 25.8822 12.9268 25.8281L12.7197 25.6621L12.5049 25.4746C12.4433 25.4182 12.3814 25.3596 12.3203 25.2988H12.3213L12.123 25.0938C12.0598 25.0249 11.9975 24.9548 11.9395 24.8857H11.9404C11.827 24.7507 11.7172 24.6093 11.6152 24.4648L11.6055 24.4492L11.4404 24.2031C11.3895 24.1233 11.3406 24.0438 11.2949 23.9648C11.2002 23.8008 11.1109 23.6289 11.0303 23.4561C10.9908 23.3715 10.9529 23.2856 10.917 23.1992L10.8145 22.9365C10.8003 22.8946 10.7723 22.8126 10.7402 22.7139L10.6357 22.375C10.6352 22.3723 10.6344 22.3692 10.6338 22.3662C10.6311 22.3536 10.6285 22.3381 10.625 22.3223C10.6172 22.2869 10.6073 22.2453 10.5977 22.2021C10.588 22.1588 10.5774 22.1129 10.5674 22.0674C10.5409 21.9477 10.5334 21.9098 10.5117 21.8115C10.5083 21.7962 10.5046 21.7819 10.502 21.7705C10.5001 21.7625 10.4992 21.7559 10.498 21.751C10.4853 21.6724 10.4675 21.5396 10.4502 21.3975C10.4412 21.324 10.4332 21.2566 10.4277 21.209L10.4209 21.1533C10.405 20.9593 10.3972 20.7633 10.3975 20.5674V20.5654C10.3975 20.3632 10.4071 20.1599 10.4248 19.958L10.46 19.6377C10.4738 19.5342 10.4905 19.4293 10.5088 19.3271C10.5458 19.1196 10.5925 18.9118 10.6475 18.708C10.7032 18.5014 10.7668 18.2963 10.8398 18.0967H10.8408C10.9138 17.8972 10.9955 17.7013 11.085 17.5098L11.0908 17.4971C11.1842 17.298 11.2857 17.1034 11.3945 16.916L11.3936 16.915L11.5723 16.624C11.6306 16.533 11.6916 16.4438 11.7529 16.3564C11.7576 16.3499 11.7611 16.3438 11.7637 16.3398C11.7643 16.3389 11.7651 16.3378 11.7656 16.3369C11.8273 16.2499 11.8907 16.1636 11.9561 16.0791L12.1631 15.8232C12.3057 15.6537 12.458 15.4884 12.6172 15.3291L12.8711 15.0859C12.9501 15.0137 13.0319 14.9422 13.1152 14.8721C13.123 14.8659 13.1327 14.8581 13.1396 14.8525C13.1476 14.846 13.1563 14.839 13.165 14.832C13.2071 14.7987 13.2664 14.7523 13.332 14.7012C13.4734 14.591 13.6081 14.4883 13.6807 14.4375L13.6836 14.4355C13.8752 14.3015 14.0722 14.1755 14.2734 14.0596L14.2764 14.0586C14.4689 13.9474 14.6665 13.8438 14.8672 13.749L14.9062 13.7314C15.1212 13.6311 15.3431 13.539 15.5684 13.457H15.5693C15.7906 13.3764 16.0147 13.3053 16.2402 13.2441C16.2548 13.2406 16.2788 13.2342 16.3066 13.2275C16.3606 13.2146 16.4352 13.1982 16.5234 13.1777C16.6987 13.1371 16.8645 13.0996 16.96 13.082C16.9607 13.082 16.9617 13.0822 16.9629 13.082C16.9666 13.0815 16.9705 13.0809 16.9766 13.0801C16.9881 13.0786 17.0044 13.0759 17.0225 13.0732C17.0826 13.0643 17.1592 13.0532 17.2451 13.041C17.4314 13.0147 17.612 12.9919 17.708 12.9834C17.9555 12.9615 18.2053 12.9495 18.4541 12.9492L18.9297 12.9658C19.0182 12.9703 19.0986 12.975 19.1582 12.9785C19.1749 12.9795 19.1899 12.9809 19.2012 12.9814C19.2105 12.9818 19.2162 12.9813 19.2197 12.9814C19.4688 13.0033 19.7175 13.0363 19.9629 13.0791C20.214 13.1229 20.4654 13.179 20.7139 13.2451L21.1816 13.3877C21.2685 13.4157 21.3474 13.4421 21.4043 13.4609C21.4567 13.4783 21.433 13.4686 21.4541 13.4756V13.4766C21.6913 13.5624 21.9256 13.6581 22.1553 13.7637L22.4404 13.9062C22.6088 13.9917 22.7741 14.0794 22.8682 14.1328L23.5771 14.583C23.7821 14.7272 23.9813 14.8787 24.1729 15.0381V15.0391C24.1747 15.0406 24.1766 15.042 24.1777 15.043C24.2064 15.0682 24.2019 15.063 24.2334 15.0908C24.279 15.1311 24.3418 15.1867 24.4102 15.248V15.249L24.7812 15.5938H24.7822C24.7934 15.6055 24.8093 15.6218 24.8291 15.6426C24.8739 15.6897 24.9333 15.752 24.998 15.8213C25.1377 15.9707 25.2729 16.12 25.3428 16.2031V16.2041H25.3438C25.5214 16.4154 25.6899 16.6337 25.8467 16.8574L25.8525 16.8652C26.0098 17.0897 26.1572 17.3224 26.2949 17.5605C26.429 17.7925 26.553 18.0306 26.667 18.2725L26.6836 18.3066C26.8028 18.5615 26.9112 18.8233 27.0078 19.0889L27.0127 19.1006L27.1592 19.4688C27.2858 19.7865 27.4321 20.2053 27.4854 20.8096L27.502 21.0801V24.5625C27.5021 26.0041 28.0741 27.3876 29.0938 28.4072C30.1134 29.4267 31.4968 30 32.9385 30H33.3564V26.25H32.9385C32.4912 26.25 32.0614 26.072 31.7451 25.7559C31.429 25.4397 31.2521 25.0099 31.252 24.5625V21.6768H31.2598L31.2578 21.2588C31.2574 21.164 31.2539 21.0709 31.251 20.9854H31.252V11.2236H27.502V13.0117L27.4824 12.9922L27.4795 12.9883L27.4707 12.9785L27.4609 12.9678L27.4385 12.9463L27.4316 12.9395L27.1816 12.7012L27.1777 12.6973L26.9209 12.4629C26.8413 12.3914 26.7676 12.3268 26.7148 12.2803C26.7003 12.2674 26.6875 12.2554 26.6768 12.2461C26.6651 12.2361 26.6578 12.2304 26.6523 12.2256V12.2246C26.6519 12.2242 26.6505 12.2236 26.6494 12.2227C26.6486 12.2219 26.6461 12.2202 26.6445 12.2188L26.6357 12.21L26.627 12.2021L26.6025 12.1816L26.5957 12.1758L26.5898 12.1709L26.1611 11.8291L26.1543 11.8232C26.0054 11.7094 25.8541 11.5978 25.7002 11.4902L25.6904 11.4844L25.6357 11.4482L25.6299 11.4443L24.8174 10.9297C24.7992 10.9182 24.7747 10.9021 24.748 10.8867C24.563 10.7804 24.3106 10.6507 24.1348 10.5615C24.0429 10.5149 23.9569 10.4714 23.8945 10.4404C23.8765 10.4314 23.8604 10.4231 23.8477 10.417C23.8334 10.4102 23.8265 10.4069 23.8213 10.4043C23.8208 10.404 23.8169 10.4026 23.8145 10.4014L23.8008 10.3936L23.7793 10.3838C23.7779 10.3832 23.7766 10.3824 23.7754 10.3818C23.7762 10.3823 23.7774 10.3834 23.7783 10.3838C23.7818 10.3853 23.787 10.3877 23.793 10.3906L23.7734 10.3818H23.7754C23.7734 10.381 23.7716 10.3803 23.7705 10.3799L23.7676 10.3789C23.7623 10.3764 23.7572 10.374 23.7529 10.3721C23.4375 10.226 23.1152 10.0929 22.7881 9.97266L22.7295 9.91406H22.623C22.6108 9.90993 22.5972 9.90543 22.585 9.90137C22.5208 9.88009 22.4307 9.85022 22.332 9.81836C22.1477 9.75886 21.8816 9.67434 21.6777 9.62012C21.3244 9.52609 20.9662 9.44846 20.6064 9.38574C20.2503 9.32368 19.8907 9.27628 19.5303 9.24512H19.5254L19.4932 9.24219L19.4775 9.24121C19.4733 9.24087 19.4661 9.24074 19.458 9.24023C19.445 9.23943 19.4104 9.23721 19.3789 9.23535C19.3125 9.23143 19.2209 9.22681 19.1201 9.22168C18.931 9.21205 18.6578 9.19896 18.4502 9.19922L18.2773 9.2002ZM18.8311 30.4961C18.8288 30.4967 18.8261 30.4966 18.8242 30.4971C18.8261 30.4966 18.8278 30.4965 18.8291 30.4961L18.8301 30.4951L18.8311 30.4961ZM18.0127 30.25C17.7631 30.2942 17.5105 30.3292 17.2578 30.3516C17.0036 30.3741 16.7446 30.3854 16.4883 30.3857L16.4873 30.3848C16.3578 30.385 16.2284 30.3823 16.0996 30.377C16.2284 30.3822 16.3577 30.384 16.4873 30.3838L16.4883 30.3848C16.7445 30.3844 17.0027 30.3731 17.2568 30.3506C17.5097 30.3282 17.7629 30.2942 18.0127 30.25ZM14.9443 30.2529C14.9518 30.2542 15.0753 30.2733 15.2314 30.2949C15.076 30.2736 14.9531 30.2553 14.9443 30.2539C14.9403 30.2532 14.9357 30.2517 14.9316 30.251C14.9357 30.2517 14.9403 30.2522 14.9443 30.2529ZM18.7139 30.0967L18.6982 30.0996C18.7044 30.0981 18.71 30.0966 18.7139 30.0957C18.7157 30.0953 18.7181 30.0952 18.7197 30.0947C18.7181 30.0952 18.7157 30.0962 18.7139 30.0967ZM19.1074 29.9824C18.9887 30.0202 18.869 30.0557 18.749 30.0879L18.748 30.0869C18.7443 30.088 18.7395 30.0901 18.7373 30.0908L18.7285 30.0928L18.7236 30.0938C18.7243 30.0936 18.7263 30.0924 18.7285 30.0918C18.7294 30.0916 18.7327 30.0917 18.7363 30.0908C18.7384 30.0903 18.744 30.087 18.748 30.0859L18.749 30.0869L19.1074 29.9824ZM13.3994 29.8418V29.8428C13.254 29.7901 13.0642 29.7119 12.9346 29.6572V29.6562C13.0642 29.7109 13.2539 29.7891 13.3994 29.8418ZM20.4736 29.418C20.3651 29.4745 20.2549 29.5284 20.1436 29.5801L19.8057 29.7275C19.9194 29.6807 20.0319 29.6316 20.1426 29.5801L20.4736 29.418ZM32.9385 29.583L32.6895 29.5771C32.6526 29.5753 32.6159 29.5711 32.5791 29.5684C32.6983 29.5772 32.8181 29.583 32.9385 29.583ZM11.9287 29.1592C12.1649 29.2953 12.4067 29.4202 12.6523 29.5342C12.6622 29.5387 12.6727 29.5445 12.6826 29.5488H12.6846V29.5498L12.6826 29.5488C12.673 29.5446 12.6629 29.5396 12.6533 29.5352C12.4076 29.4212 12.1649 29.2963 11.9287 29.1602V29.1592ZM11.0869 29.1191L11.0879 29.1201C11.0878 29.12 11.0863 29.1198 11.085 29.1191C11.0835 29.1184 11.0812 29.1161 11.0781 29.1143L11.0771 29.1133C11.0819 29.116 11.0854 29.1183 11.0869 29.1191ZM22.0088 28.3887C21.9978 28.3984 21.9859 28.4086 21.9746 28.418L21.6963 28.6406C21.6019 28.713 21.5061 28.7841 21.4082 28.8525L21.4072 28.8516C21.603 28.7147 21.7923 28.5693 21.9736 28.418C21.985 28.4085 21.9968 28.3985 22.0078 28.3887C22.017 28.3807 22.0973 28.3105 22.1777 28.2383L22.0088 28.3887ZM11.2568 28.7344C11.2673 28.7414 11.2761 28.7476 11.2812 28.751C11.2835 28.7524 11.2858 28.7531 11.2871 28.7539L11.29 28.7559L11.2871 28.7549C11.2859 28.7541 11.2835 28.7524 11.2812 28.751C11.2761 28.7476 11.2671 28.7422 11.2568 28.7354C11.2541 28.7335 11.2512 28.7307 11.248 28.7285C11.2511 28.7306 11.2541 28.7325 11.2568 28.7344ZM23.1953 27.1484L22.9756 27.4209L22.6846 27.7441C22.7814 27.6407 22.8955 27.5149 22.9756 27.4199L23.1943 27.1484L23.4014 26.8682L23.1953 27.1484ZM12.9814 26.3848C12.9762 26.3806 12.9701 26.3771 12.9648 26.373C12.9509 26.3623 12.9381 26.352 12.9268 26.3438L12.9258 26.3428C12.9416 26.3542 12.9608 26.3683 12.9814 26.3848ZM8.87109 26.3564V26.3574L8.63281 26.001V26L8.87109 26.3564ZM7.41113 23.2207V23.2217L7.39551 23.1582V23.1572L7.41113 23.2207ZM24.8066 22.4971C24.8065 22.7132 24.7966 22.9302 24.7773 23.1445L24.7764 23.1436C24.7956 22.9292 24.8055 22.7131 24.8057 22.4971H24.8066ZM21.4033 20.5254L21.5 20.7129C21.4834 20.6781 21.4469 20.6082 21.4033 20.5264L21.3496 20.4258C21.3634 20.4512 21.3827 20.4867 21.4033 20.5254ZM20.7441 19.6328C20.8191 19.7073 20.893 19.7872 20.9629 19.8701L20.7441 19.6338L20.7412 19.6289L20.7441 19.6328ZM20.3926 19.3242C20.4336 19.3556 20.4746 19.3882 20.5137 19.4209C20.4747 19.3883 20.4336 19.3566 20.3926 19.3252L20.2676 19.2334L20.3926 19.3242ZM23.8936 18.9971C23.8983 19.0058 23.9051 19.0185 23.9131 19.0332L23.9424 19.0889C23.931 19.0678 23.9206 19.0488 23.9121 19.0332C23.904 19.0183 23.8974 19.0058 23.8926 18.9971H23.8936ZM10.5742 17.6348L10.4502 17.9541V17.9531C10.4894 17.8458 10.5304 17.7392 10.5742 17.6338V17.6348ZM12.3291 15.0283C12.2442 15.1131 12.161 15.1992 12.0801 15.2871C11.9994 15.3749 11.9209 15.4642 11.8447 15.5547L11.8438 15.5557C11.6957 15.7317 11.5541 15.9151 11.4209 16.1035C11.418 16.1078 11.4151 16.113 11.4121 16.1172C11.3454 16.2122 11.2805 16.3091 11.2178 16.4072H11.2168C11.2796 16.309 11.3453 16.2113 11.4121 16.1162C11.4151 16.112 11.418 16.1068 11.4209 16.1025C11.5542 15.914 11.6956 15.7308 11.8438 15.5547H11.8447C11.9974 15.3733 12.1595 15.1967 12.3291 15.0273V15.0283ZM25.3027 15.5361C25.4434 15.6866 25.5847 15.8434 25.6621 15.9355H25.6631V15.9365L25.6621 15.9355C25.5848 15.8435 25.4432 15.6874 25.3027 15.5371C25.2364 15.4661 25.1747 15.4016 25.1309 15.3555V15.3545C25.1748 15.4007 25.2362 15.465 25.3027 15.5361ZM24.4531 14.7295C24.466 14.7408 24.4854 14.7576 24.5088 14.7783C24.5276 14.795 24.5494 14.8148 24.5732 14.8359C24.5494 14.8149 24.5276 14.7959 24.5088 14.7793C24.4855 14.7587 24.4661 14.7418 24.4531 14.7305C24.4513 14.7288 24.4489 14.727 24.4473 14.7256V14.7246C24.449 14.7261 24.4511 14.7278 24.4531 14.7295ZM13.4434 14.0957C13.361 14.1532 13.2178 14.2617 13.0762 14.3721C13.0096 14.4239 12.9495 14.4716 12.9062 14.5059V14.5049C12.9495 14.4706 13.0098 14.4238 13.0762 14.3721C13.2178 14.2617 13.361 14.1522 13.4434 14.0947V14.0957ZM27.4336 13.5449L27.6211 13.749C27.5547 13.6763 27.4893 13.6056 27.4326 13.5449C27.3595 13.4668 27.2929 13.397 27.2451 13.3467C27.293 13.397 27.3604 13.4667 27.4336 13.5449ZM21.5352 13.0645C21.5593 13.0724 21.5806 13.0789 21.5957 13.084C21.8466 13.1748 22.094 13.2768 22.3369 13.3887L22.627 13.5332V13.5342L22.3369 13.3887C22.2154 13.3327 22.0925 13.2792 21.9688 13.2285C21.8454 13.1779 21.7209 13.1303 21.5957 13.085C21.5807 13.0799 21.5592 13.0734 21.5352 13.0654C21.4776 13.0463 21.3977 13.0196 21.3096 12.9912C21.3976 13.0196 21.4776 13.0454 21.5352 13.0645ZM15.4268 13.0664L15.0742 13.2031L14.7305 13.3545H14.7285C14.6161 13.4068 14.5046 13.4612 14.3945 13.5186C14.5047 13.4611 14.616 13.4059 14.7285 13.3535H14.7305C14.9566 13.248 15.1892 13.1515 15.4258 13.0654L15.4268 13.0664ZM18.9512 12.5498C19.0416 12.5544 19.1235 12.559 19.1826 12.5625C19.21 12.5641 19.2331 12.5654 19.249 12.5664C19.2331 12.5654 19.21 12.5651 19.1826 12.5635C19.1235 12.56 19.0415 12.5544 18.9512 12.5498C18.7594 12.54 18.5645 12.5331 18.4541 12.5332C18.1933 12.5335 17.9313 12.5454 17.6719 12.5684V12.5674C17.9312 12.5444 18.1924 12.5325 18.4531 12.5322C18.5634 12.5321 18.7591 12.54 18.9512 12.5498ZM26.3301 12.4961L26.3545 12.5176H26.3535L26.3291 12.4961H26.3301ZM24.2441 11.0859C24.3315 11.1319 24.418 11.1801 24.4951 11.2236C24.4177 11.1801 24.3308 11.132 24.2432 11.0859L23.9463 10.9326L24.2441 11.0859ZM15.3301 9.60742C15.3278 9.60809 15.3256 9.60799 15.3242 9.6084L15.3262 9.60742C15.3271 9.60716 15.3286 9.6078 15.3301 9.60742Z" fill="#0130CE"/>
</g>
<path d="M51.3092 27L55.8492 12.6H59.3792L63.9192 27H61.4392L57.3192 14.08H57.8592L53.7892 27H51.3092ZM53.8392 23.88V21.63H61.3992V23.88H53.8392ZM66.1271 27V12.3H68.5371V27H66.1271ZM84.7026 27V20.44C84.7026 19.7 84.5193 19.1233 84.1526 18.71C83.786 18.29 83.2893 18.08 82.6626 18.08C82.276 18.08 81.9293 18.17 81.6226 18.35C81.316 18.5233 81.0726 18.7833 80.8926 19.13C80.7126 19.47 80.6226 19.8767 80.6226 20.35L79.5526 19.72C79.546 18.9733 79.7126 18.3167 80.0526 17.75C80.3993 17.1767 80.866 16.73 81.4526 16.41C82.0393 16.09 82.6926 15.93 83.4126 15.93C84.606 15.93 85.5193 16.29 86.1526 17.01C86.7926 17.7233 87.1126 18.6633 87.1126 19.83V27H84.7026ZM71.7126 27V16.2H73.8426V19.55H74.1426V27H71.7126ZM78.2226 27V20.47C78.2226 19.7167 78.0393 19.13 77.6726 18.71C77.306 18.29 76.806 18.08 76.1726 18.08C75.5593 18.08 75.066 18.29 74.6926 18.71C74.326 19.13 74.1426 19.6767 74.1426 20.35L73.0626 19.63C73.0626 18.93 73.236 18.3 73.5826 17.74C73.9293 17.18 74.396 16.74 74.9826 16.42C75.576 16.0933 76.2393 15.93 76.9726 15.93C77.7793 15.93 78.4526 16.1033 78.9926 16.45C79.5393 16.79 79.946 17.2567 80.2126 17.85C80.486 18.4367 80.6226 19.1 80.6226 19.84V27H78.2226ZM92.9409 27.3C92.1609 27.3 91.5009 27.1533 90.9609 26.86C90.4209 26.56 90.0109 26.1633 89.7309 25.67C89.4576 25.1767 89.3209 24.6333 89.3209 24.04C89.3209 23.52 89.4076 23.0533 89.5809 22.64C89.7542 22.22 90.0209 21.86 90.3809 21.56C90.7409 21.2533 91.2076 21.0033 91.7809 20.81C92.2142 20.67 92.7209 20.5433 93.3009 20.43C93.8876 20.3167 94.5209 20.2133 95.2009 20.12C95.8876 20.02 96.6042 19.9133 97.3509 19.8L96.4909 20.29C96.4976 19.5433 96.3309 18.9933 95.9909 18.64C95.6509 18.2867 95.0776 18.11 94.2709 18.11C93.7842 18.11 93.3142 18.2233 92.8609 18.45C92.4076 18.6767 92.0909 19.0667 91.9109 19.62L89.7109 18.93C89.9776 18.0167 90.4842 17.2833 91.2309 16.73C91.9842 16.1767 92.9976 15.9 94.2709 15.9C95.2309 15.9 96.0742 16.0567 96.8009 16.37C97.5342 16.6833 98.0776 17.1967 98.4309 17.91C98.6242 18.29 98.7409 18.68 98.7809 19.08C98.8209 19.4733 98.8409 19.9033 98.8409 20.37V27H96.7309V24.66L97.0809 25.04C96.5942 25.82 96.0242 26.3933 95.3709 26.76C94.7242 27.12 93.9142 27.3 92.9409 27.3ZM93.4209 25.38C93.9676 25.38 94.4342 25.2833 94.8209 25.09C95.2076 24.8967 95.5142 24.66 95.7409 24.38C95.9742 24.1 96.1309 23.8367 96.2109 23.59C96.3376 23.2833 96.4076 22.9333 96.4209 22.54C96.4409 22.14 96.4509 21.8167 96.4509 21.57L97.1909 21.79C96.4642 21.9033 95.8409 22.0033 95.3209 22.09C94.8009 22.1767 94.3542 22.26 93.9809 22.34C93.6076 22.4133 93.2776 22.4967 92.9909 22.59C92.7109 22.69 92.4742 22.8067 92.2809 22.94C92.0876 23.0733 91.9376 23.2267 91.8309 23.4C91.7309 23.5733 91.6809 23.7767 91.6809 24.01C91.6809 24.2767 91.7476 24.5133 91.8809 24.72C92.0142 24.92 92.2076 25.08 92.4609 25.2C92.7209 25.32 93.0409 25.38 93.4209 25.38ZM105.848 27V12.6H110.438C110.558 12.6 110.795 12.6033 111.148 12.61C111.508 12.6167 111.855 12.64 112.188 12.68C113.328 12.8267 114.292 13.2333 115.078 13.9C115.872 14.56 116.472 15.4033 116.878 16.43C117.285 17.4567 117.488 18.58 117.488 19.8C117.488 21.02 117.285 22.1433 116.878 23.17C116.472 24.1967 115.872 25.0433 115.078 25.71C114.292 26.37 113.328 26.7733 112.188 26.92C111.862 26.96 111.518 26.9833 111.158 26.99C110.798 26.9967 110.558 27 110.438 27H105.848ZM108.298 24.73H110.438C110.638 24.73 110.892 24.7233 111.198 24.71C111.512 24.6967 111.788 24.6667 112.028 24.62C112.708 24.4933 113.262 24.19 113.688 23.71C114.115 23.23 114.428 22.6467 114.628 21.96C114.835 21.2733 114.938 20.5533 114.938 19.8C114.938 19.02 114.835 18.2867 114.628 17.6C114.422 16.9133 114.102 16.3367 113.668 15.87C113.242 15.4033 112.695 15.1067 112.028 14.98C111.788 14.9267 111.512 14.8967 111.198 14.89C110.892 14.8767 110.638 14.87 110.438 14.87H108.298V24.73ZM124.962 27.3C123.869 27.3 122.909 27.0633 122.082 26.59C121.255 26.1167 120.609 25.46 120.142 24.62C119.682 23.78 119.452 22.8133 119.452 21.72C119.452 20.54 119.679 19.5167 120.132 18.65C120.585 17.7767 121.215 17.1 122.022 16.62C122.829 16.14 123.762 15.9 124.822 15.9C125.942 15.9 126.892 16.1633 127.672 16.69C128.459 17.21 129.042 17.9467 129.422 18.9C129.802 19.8533 129.945 20.9767 129.852 22.27H127.462V21.39C127.455 20.2167 127.249 19.36 126.842 18.82C126.435 18.28 125.795 18.01 124.922 18.01C123.935 18.01 123.202 18.3167 122.722 18.93C122.242 19.5367 122.002 20.4267 122.002 21.6C122.002 22.6933 122.242 23.54 122.722 24.14C123.202 24.74 123.902 25.04 124.822 25.04C125.415 25.04 125.925 24.91 126.352 24.65C126.785 24.3833 127.119 24 127.352 23.5L129.732 24.22C129.319 25.1933 128.679 25.95 127.812 26.49C126.952 27.03 126.002 27.3 124.962 27.3ZM121.242 22.27V20.45H128.672V22.27H121.242ZM136.453 27.3C135.12 27.3 134.037 27 133.203 26.4C132.37 25.8 131.863 24.9567 131.683 23.87L134.143 23.49C134.27 24.0233 134.55 24.4433 134.983 24.75C135.417 25.0567 135.963 25.21 136.623 25.21C137.203 25.21 137.65 25.0967 137.963 24.87C138.283 24.6367 138.443 24.32 138.443 23.92C138.443 23.6733 138.383 23.4767 138.263 23.33C138.15 23.1767 137.897 23.03 137.503 22.89C137.11 22.75 136.507 22.5733 135.693 22.36C134.787 22.12 134.067 21.8633 133.533 21.59C133 21.31 132.617 20.98 132.383 20.6C132.15 20.22 132.033 19.76 132.033 19.22C132.033 18.5467 132.21 17.96 132.563 17.46C132.917 16.96 133.41 16.5767 134.043 16.31C134.677 16.0367 135.423 15.9 136.283 15.9C137.123 15.9 137.867 16.03 138.513 16.29C139.167 16.55 139.693 16.92 140.093 17.4C140.493 17.88 140.74 18.4433 140.833 19.09L138.373 19.53C138.313 19.07 138.103 18.7067 137.743 18.44C137.39 18.1733 136.917 18.0233 136.323 17.99C135.757 17.9567 135.3 18.0433 134.953 18.25C134.607 18.45 134.433 18.7333 134.433 19.1C134.433 19.3067 134.503 19.4833 134.643 19.63C134.783 19.7767 135.063 19.9233 135.483 20.07C135.91 20.2167 136.543 20.3967 137.383 20.61C138.243 20.83 138.93 21.0833 139.443 21.37C139.963 21.65 140.337 21.9867 140.563 22.38C140.797 22.7733 140.913 23.25 140.913 23.81C140.913 24.8967 140.517 25.75 139.723 26.37C138.937 26.99 137.847 27.3 136.453 27.3ZM143.504 14.56V12.35H145.914V14.56H143.504ZM143.504 27V16.2H145.914V27H143.504ZM153.649 32.1C153.049 32.1 152.473 32.0067 151.919 31.82C151.373 31.6333 150.879 31.3633 150.439 31.01C149.999 30.6633 149.639 30.2433 149.359 29.75L151.579 28.65C151.786 29.0433 152.076 29.3333 152.449 29.52C152.829 29.7133 153.233 29.81 153.659 29.81C154.159 29.81 154.606 29.72 154.999 29.54C155.393 29.3667 155.696 29.1067 155.909 28.76C156.129 28.42 156.233 27.9933 156.219 27.48V24.41H156.519V16.2H158.629V27.52C158.629 27.7933 158.616 28.0533 158.589 28.3C158.569 28.5533 158.533 28.8 158.479 29.04C158.319 29.74 158.013 30.3133 157.559 30.76C157.106 31.2133 156.543 31.55 155.869 31.77C155.203 31.99 154.463 32.1 153.649 32.1ZM153.439 27.3C152.446 27.3 151.579 27.05 150.839 26.55C150.099 26.05 149.526 25.37 149.119 24.51C148.713 23.65 148.509 22.68 148.509 21.6C148.509 20.5067 148.713 19.5333 149.119 18.68C149.533 17.82 150.116 17.1433 150.869 16.65C151.623 16.15 152.509 15.9 153.529 15.9C154.556 15.9 155.416 16.15 156.109 16.65C156.809 17.1433 157.339 17.82 157.699 18.68C158.059 19.54 158.239 20.5133 158.239 21.6C158.239 22.6733 158.059 23.6433 157.699 24.51C157.339 25.37 156.803 26.05 156.089 26.55C155.376 27.05 154.493 27.3 153.439 27.3ZM153.809 25.14C154.456 25.14 154.976 24.9933 155.369 24.7C155.769 24.4 156.059 23.9833 156.239 23.45C156.426 22.9167 156.519 22.3 156.519 21.6C156.519 20.8933 156.426 20.2767 156.239 19.75C156.059 19.2167 155.776 18.8033 155.389 18.51C155.003 18.21 154.503 18.06 153.889 18.06C153.243 18.06 152.709 18.22 152.289 18.54C151.869 18.8533 151.559 19.28 151.359 19.82C151.159 20.3533 151.059 20.9467 151.059 21.6C151.059 22.26 151.156 22.86 151.349 23.4C151.549 23.9333 151.853 24.3567 152.259 24.67C152.666 24.9833 153.183 25.14 153.809 25.14ZM169.103 27V21.8C169.103 21.46 169.08 21.0833 169.033 20.67C168.987 20.2567 168.877 19.86 168.703 19.48C168.537 19.0933 168.283 18.7767 167.943 18.53C167.61 18.2833 167.157 18.16 166.583 18.16C166.277 18.16 165.973 18.21 165.673 18.31C165.373 18.41 165.1 18.5833 164.853 18.83C164.613 19.07 164.42 19.4033 164.273 19.83C164.127 20.25 164.053 20.79 164.053 21.45L162.623 20.84C162.623 19.92 162.8 19.0867 163.153 18.34C163.513 17.5933 164.04 17 164.733 16.56C165.427 16.1133 166.28 15.89 167.293 15.89C168.093 15.89 168.753 16.0233 169.273 16.29C169.793 16.5567 170.207 16.8967 170.513 17.31C170.82 17.7233 171.047 18.1633 171.193 18.63C171.34 19.0967 171.433 19.54 171.473 19.96C171.52 20.3733 171.543 20.71 171.543 20.97V27H169.103ZM161.613 27V16.2H163.763V19.55H164.053V27H161.613ZM183.887 27.3C182.834 27.3 181.884 27.1167 181.037 26.75C180.197 26.3833 179.504 25.86 178.957 25.18C178.417 24.4933 178.074 23.68 177.927 22.74L180.427 22.36C180.64 23.2133 181.077 23.8733 181.737 24.34C182.404 24.8067 183.17 25.04 184.037 25.04C184.55 25.04 185.034 24.96 185.487 24.8C185.94 24.64 186.307 24.4067 186.587 24.1C186.874 23.7933 187.017 23.4167 187.017 22.97C187.017 22.77 186.984 22.5867 186.917 22.42C186.85 22.2467 186.75 22.0933 186.617 21.96C186.49 21.8267 186.324 21.7067 186.117 21.6C185.917 21.4867 185.684 21.39 185.417 21.31L181.697 20.21C181.377 20.1167 181.03 19.9933 180.657 19.84C180.29 19.68 179.94 19.4633 179.607 19.19C179.28 18.91 179.01 18.5567 178.797 18.13C178.59 17.6967 178.487 17.1633 178.487 16.53C178.487 15.6033 178.72 14.8267 179.187 14.2C179.66 13.5667 180.294 13.0933 181.087 12.78C181.887 12.4667 182.774 12.3133 183.747 12.32C184.734 12.3267 185.614 12.4967 186.387 12.83C187.16 13.1567 187.807 13.6333 188.327 14.26C188.847 14.8867 189.214 15.6433 189.427 16.53L186.837 16.98C186.73 16.4733 186.524 16.0433 186.217 15.69C185.917 15.33 185.547 15.0567 185.107 14.87C184.674 14.6833 184.21 14.5833 183.717 14.57C183.237 14.5633 182.79 14.6367 182.377 14.79C181.97 14.9367 181.64 15.15 181.387 15.43C181.14 15.71 181.017 16.0367 181.017 16.41C181.017 16.7633 181.124 17.0533 181.337 17.28C181.55 17.5 181.814 17.6767 182.127 17.81C182.447 17.9367 182.77 18.0433 183.097 18.13L185.677 18.85C186.03 18.9433 186.427 19.07 186.867 19.23C187.307 19.39 187.73 19.6133 188.137 19.9C188.544 20.1867 188.877 20.5633 189.137 21.03C189.404 21.4967 189.537 22.09 189.537 22.81C189.537 23.5567 189.38 24.2133 189.067 24.78C188.76 25.34 188.344 25.8067 187.817 26.18C187.29 26.5533 186.687 26.8333 186.007 27.02C185.334 27.2067 184.627 27.3 183.887 27.3ZM193.126 31.8L195.206 26.09L195.246 27.77L190.536 16.2H193.046L196.386 24.76H195.746L198.996 16.2H201.406L195.386 31.8H193.126ZM207.267 27.3C205.934 27.3 204.851 27 204.017 26.4C203.184 25.8 202.677 24.9567 202.497 23.87L204.957 23.49C205.084 24.0233 205.364 24.4433 205.797 24.75C206.231 25.0567 206.777 25.21 207.437 25.21C208.017 25.21 208.464 25.0967 208.777 24.87C209.097 24.6367 209.257 24.32 209.257 23.92C209.257 23.6733 209.197 23.4767 209.077 23.33C208.964 23.1767 208.711 23.03 208.317 22.89C207.924 22.75 207.321 22.5733 206.507 22.36C205.601 22.12 204.881 21.8633 204.347 21.59C203.814 21.31 203.431 20.98 203.197 20.6C202.964 20.22 202.847 19.76 202.847 19.22C202.847 18.5467 203.024 17.96 203.377 17.46C203.731 16.96 204.224 16.5767 204.857 16.31C205.491 16.0367 206.237 15.9 207.097 15.9C207.937 15.9 208.681 16.03 209.327 16.29C209.981 16.55 210.507 16.92 210.907 17.4C211.307 17.88 211.554 18.4433 211.647 19.09L209.187 19.53C209.127 19.07 208.917 18.7067 208.557 18.44C208.204 18.1733 207.731 18.0233 207.137 17.99C206.571 17.9567 206.114 18.0433 205.767 18.25C205.421 18.45 205.247 18.7333 205.247 19.1C205.247 19.3067 205.317 19.4833 205.457 19.63C205.597 19.7767 205.877 19.9233 206.297 20.07C206.724 20.2167 207.357 20.3967 208.197 20.61C209.057 20.83 209.744 21.0833 210.257 21.37C210.777 21.65 211.151 21.9867 211.377 22.38C211.611 22.7733 211.727 23.25 211.727 23.81C211.727 24.8967 211.331 25.75 210.537 26.37C209.751 26.99 208.661 27.3 207.267 27.3ZM220.448 27C219.734 27.1333 219.034 27.19 218.348 27.17C217.668 27.1567 217.058 27.0333 216.518 26.8C215.978 26.56 215.568 26.1833 215.288 25.67C215.041 25.2033 214.911 24.7267 214.898 24.24C214.884 23.7533 214.878 23.2033 214.878 22.59V13.2H217.278V22.45C217.278 22.8833 217.281 23.2633 217.288 23.59C217.301 23.9167 217.371 24.1833 217.498 24.39C217.738 24.79 218.121 25.0133 218.648 25.06C219.174 25.1067 219.774 25.08 220.448 24.98V27ZM212.918 18.09V16.2H220.448V18.09H212.918ZM227.333 27.3C226.24 27.3 225.28 27.0633 224.453 26.59C223.627 26.1167 222.98 25.46 222.513 24.62C222.053 23.78 221.823 22.8133 221.823 21.72C221.823 20.54 222.05 19.5167 222.503 18.65C222.957 17.7767 223.587 17.1 224.393 16.62C225.2 16.14 226.133 15.9 227.193 15.9C228.313 15.9 229.263 16.1633 230.043 16.69C230.83 17.21 231.413 17.9467 231.793 18.9C232.173 19.8533 232.317 20.9767 232.223 22.27H229.833V21.39C229.827 20.2167 229.62 19.36 229.213 18.82C228.807 18.28 228.167 18.01 227.293 18.01C226.307 18.01 225.573 18.3167 225.093 18.93C224.613 19.5367 224.373 20.4267 224.373 21.6C224.373 22.6933 224.613 23.54 225.093 24.14C225.573 24.74 226.273 25.04 227.193 25.04C227.787 25.04 228.297 24.91 228.723 24.65C229.157 24.3833 229.49 24 229.723 23.5L232.103 24.22C231.69 25.1933 231.05 25.95 230.183 26.49C229.323 27.03 228.373 27.3 227.333 27.3ZM223.613 22.27V20.45H231.043V22.27H223.613ZM247.332 27V20.44C247.332 19.7 247.148 19.1233 246.782 18.71C246.415 18.29 245.918 18.08 245.292 18.08C244.905 18.08 244.558 18.17 244.252 18.35C243.945 18.5233 243.702 18.7833 243.522 19.13C243.342 19.47 243.252 19.8767 243.252 20.35L242.182 19.72C242.175 18.9733 242.342 18.3167 242.682 17.75C243.028 17.1767 243.495 16.73 244.082 16.41C244.668 16.09 245.322 15.93 246.042 15.93C247.235 15.93 248.148 16.29 248.782 17.01C249.422 17.7233 249.742 18.6633 249.742 19.83V27H247.332ZM234.342 27V16.2H236.472V19.55H236.772V27H234.342ZM240.852 27V20.47C240.852 19.7167 240.668 19.13 240.302 18.71C239.935 18.29 239.435 18.08 238.802 18.08C238.188 18.08 237.695 18.29 237.322 18.71C236.955 19.13 236.772 19.6767 236.772 20.35L235.692 19.63C235.692 18.93 235.865 18.3 236.212 17.74C236.558 17.18 237.025 16.74 237.612 16.42C238.205 16.0933 238.868 15.93 239.602 15.93C240.408 15.93 241.082 16.1033 241.622 16.45C242.168 16.79 242.575 17.2567 242.842 17.85C243.115 18.4367 243.252 19.1 243.252 19.84V27H240.852Z" fill="black"/>
<defs>
<clipPath id="clip0_355_67687">
<rect width="40" height="40" rx="10" fill="white"/>
</clipPath>
</defs>
</svg>
